<svg xmlns="http://www.w3.org/2000/svg" xmlns:xlink="http://www.w3.org/1999/xlink" width="150" zoomAndPan="magnify" viewBox="0 0 224.87999 337.499995" height="225" preserveAspectRatio="xMidYMid meet" version="1.0">
	<defs>
		<filter x="0%" y="0%" width="100%" height="100%" id="f243525e04">
			<feColorMatrix values="0 0 0 0 1 0 0 0 0 1 0 0 0 0 1 0 0 0 1 0" color-interpolation-filters="sRGB"/>
		</filter>
		<filter x="0%" y="0%" width="100%" height="100%" id="8cbe154d1f"><feColorMatrix values="0 0 0 0 1 0 0 0 0 1 0 0 0 0 1 0.2126 0.7152 0.0722 0 0" color-interpolation-filters="sRGB"/>
		</filter>
		<clipPath id="9e81637634"><path d="M 4.257812 9.175781 L 220.6875 9.175781 L 220.6875 233 L 4.257812 233 Z M 4.257812 9.175781 " clip-rule="nonzero"/>
		</clipPath>
		<clipPath id="dd144d300e">
		<path d="M 47 79 L 174.894531 79 L 174.894531 165.800781 L 47 165.800781 Z M 47 79 " clip-rule="nonzero"/>
		</clipPath>
		
		<mask id="fa94c6b9c7"><g filter="url(#f243525e04)"><g filter="url(#8cbe154d1f)" transform="matrix(0.199782, 0, 0, 0.199246, 46.833998, 78.930894)">
		<image x="0" y="0" width="641" xlink:href="image/fccRibbon.jpg" height="436" preserveAspectRatio="xMidYMid meet"/>
		</g>
		</g>
		</mask>
		
		</defs>
		<path fill="#fff" d="M 26.207031 268.1875 L 8.613281 312.472656 L 54.304688 278.828125 L 54.417969 278.828125 C 54.515625 278.75 54.625 278.683594 54.742188 278.632812 L 54.96875 278.519531 L 55.273438 278.410156 L 55.566406 278.328125 L 56.808594 278.328125 L 57.128906 278.410156 L 57.40625 278.488281 L 57.695312 278.632812 L 57.953125 278.78125 L 58.210938 278.972656 L 58.453125 279.167969 L 58.679688 279.425781 L 58.808594 279.570312 C 58.808594 279.570312 58.808594 279.570312 58.808594 279.652344 L 58.984375 279.941406 L 59.132812 280.214844 L 59.226562 280.492188 L 59.324219 280.847656 C 59.324219 280.847656 59.324219 280.847656 59.324219 280.925781 L 69.300781 336.800781 L 86.957031 292.535156 L 108.226562 238.757812 C 102.660156 238.550781 97.140625 237.925781 91.667969 236.882812 C 86.195312 235.84375 80.832031 234.402344 75.574219 232.554688 C 70.320312 230.707031 65.230469 228.476562 60.3125 225.863281 C 55.390625 223.25 50.695312 220.285156 46.21875 216.964844 Z M 26.207031 268.1875 " fill-opacity="1" fill-rule="nonzero"/>
		<path fill="#fff" d="M 180.082031 216.15625 C 175.582031 219.554688 170.859375 222.59375 165.902344 225.273438 C 160.949219 227.957031 155.820312 230.25 150.519531 232.160156 C 145.214844 234.066406 139.800781 235.566406 134.273438 236.65625 C 128.746094 237.746094 123.167969 238.414062 117.539062 238.660156 L 156.046875 335.121094 L 166.007812 279.246094 C 166.007812 279.246094 166.007812 279.246094 166.007812 279.167969 C 166.035156 279.046875 166.074219 278.929688 166.121094 278.8125 C 166.140625 278.71875 166.167969 278.628906 166.199219 278.539062 L 166.34375 278.277344 C 166.394531 278.171875 166.453125 278.070312 166.523438 277.972656 L 166.523438 277.890625 L 166.636719 277.761719 C 166.714844 277.664062 166.800781 277.570312 166.894531 277.488281 L 167.105469 277.3125 L 167.378906 277.101562 L 167.621094 276.957031 L 167.941406 276.808594 L 168.183594 276.730469 L 168.539062 276.648438 L 169.960938 276.648438 L 170.285156 276.761719 L 170.507812 276.875 L 170.847656 277.070312 L 170.945312 277.070312 L 216.8125 310.859375 L 199.058594 266.589844 Z M 180.082031 216.15625 " fill-opacity="1" fill-rule="nonzero"/>
		<path fill="#fff" d="M 190.585938 120.941406 C 190.585938 122.292969 190.554688 123.644531 190.492188 124.996094 C 190.425781 126.347656 190.328125 127.695312 190.199219 129.042969 C 190.070312 130.386719 189.910156 131.730469 189.71875 133.070312 C 189.527344 134.40625 189.300781 135.738281 189.046875 137.066406 C 188.789062 138.394531 188.503906 139.710938 188.183594 141.023438 C 187.863281 142.335938 187.515625 143.640625 187.132812 144.933594 C 186.75 146.230469 186.339844 147.511719 185.898438 148.785156 C 185.457031 150.058594 184.984375 151.320312 184.480469 152.570312 C 183.980469 153.820312 183.445312 155.058594 182.886719 156.28125 C 182.324219 157.503906 181.734375 158.710938 181.117188 159.90625 C 180.496094 161.097656 179.851562 162.273438 179.175781 163.433594 C 178.5 164.59375 177.796875 165.738281 177.070312 166.863281 C 176.339844 167.988281 175.582031 169.09375 174.800781 170.179688 C 174.019531 171.265625 173.210938 172.332031 172.378906 173.378906 C 171.546875 174.421875 170.6875 175.445312 169.808594 176.449219 C 168.925781 177.453125 168.019531 178.429688 167.09375 179.386719 C 166.164062 180.34375 165.214844 181.277344 164.242188 182.183594 C 163.269531 183.09375 162.273438 183.976562 161.261719 184.835938 C 160.246094 185.691406 159.210938 186.523438 158.15625 187.332031 C 157.101562 188.136719 156.03125 188.914062 154.9375 189.667969 C 153.847656 190.417969 152.738281 191.140625 151.613281 191.835938 C 150.484375 192.53125 149.34375 193.199219 148.1875 193.835938 C 147.027344 194.476562 145.855469 195.082031 144.667969 195.660156 C 143.484375 196.238281 142.28125 196.789062 141.070312 197.304688 C 139.855469 197.824219 138.632812 198.308594 137.398438 198.765625 C 136.160156 199.222656 134.914062 199.644531 133.660156 200.039062 C 132.402344 200.429688 131.136719 200.792969 129.863281 201.121094 C 128.589844 201.449219 127.308594 201.746094 126.023438 202.007812 C 124.734375 202.273438 123.441406 202.503906 122.144531 202.703125 C 120.84375 202.902344 119.542969 203.066406 118.234375 203.199219 C 116.929688 203.332031 115.621094 203.429688 114.308594 203.496094 C 113 203.5625 111.6875 203.597656 110.375 203.597656 C 109.0625 203.597656 107.75 203.5625 106.4375 203.496094 C 105.128906 203.429688 103.816406 203.332031 102.511719 203.199219 C 101.207031 203.066406 99.902344 202.902344 98.605469 202.703125 C 97.304688 202.503906 96.011719 202.273438 94.726562 202.007812 C 93.4375 201.746094 92.15625 201.449219 90.882812 201.121094 C 89.609375 200.792969 88.347656 200.429688 87.089844 200.039062 C 85.832031 199.644531 84.585938 199.222656 83.351562 198.765625 C 82.113281 198.308594 80.890625 197.824219 79.679688 197.304688 C 78.464844 196.789062 77.265625 196.238281 76.078125 195.660156 C 74.890625 195.082031 73.71875 194.476562 72.5625 193.835938 C 71.402344 193.199219 70.261719 192.53125 69.136719 191.835938 C 68.011719 191.140625 66.902344 190.417969 65.808594 189.667969 C 64.71875 188.914062 63.644531 188.136719 62.589844 187.332031 C 61.535156 186.523438 60.503906 185.691406 59.488281 184.835938 C 58.472656 183.976562 57.480469 183.09375 56.507812 182.183594 C 55.535156 181.277344 54.582031 180.34375 53.65625 179.386719 C 52.726562 178.429688 51.820312 177.453125 50.941406 176.449219 C 50.058594 175.445312 49.203125 174.421875 48.367188 173.378906 C 47.535156 172.332031 46.730469 171.265625 45.945312 170.179688 C 45.164062 169.09375 44.410156 167.988281 43.679688 166.863281 C 42.949219 165.738281 42.25 164.59375 41.574219 163.433594 C 40.898438 162.273438 40.25 161.097656 39.632812 159.90625 C 39.015625 158.710938 38.421875 157.503906 37.863281 156.28125 C 37.300781 155.058594 36.769531 153.820312 36.265625 152.570312 C 35.765625 151.320312 35.292969 150.058594 34.851562 148.785156 C 34.40625 147.511719 33.996094 146.230469 33.613281 144.933594 C 33.234375 143.640625 32.882812 142.335938 32.566406 141.023438 C 32.246094 139.710938 31.957031 138.390625 31.703125 137.066406 C 31.445312 135.738281 31.222656 134.40625 31.03125 133.070312 C 30.835938 131.730469 30.675781 130.386719 30.546875 129.042969 C 30.417969 127.695312 30.324219 126.347656 30.257812 124.996094 C 30.195312 123.644531 30.160156 122.292969 30.160156 120.941406 C 30.160156 119.585938 30.195312 118.234375 30.257812 116.882812 C 30.324219 115.535156 30.417969 114.183594 30.546875 112.839844 C 30.675781 111.492188 30.835938 110.148438 31.03125 108.8125 C 31.222656 107.472656 31.445312 106.140625 31.703125 104.816406 C 31.957031 103.488281 32.246094 102.167969 32.566406 100.855469 C 32.882812 99.542969 33.234375 98.242188 33.613281 96.945312 C 33.996094 95.652344 34.40625 94.367188 34.851562 93.09375 C 35.292969 91.820312 35.765625 90.558594 36.265625 89.308594 C 36.769531 88.058594 37.300781 86.824219 37.863281 85.601562 C 38.421875 84.375 39.015625 83.167969 39.632812 81.976562 C 40.25 80.78125 40.898438 79.605469 41.574219 78.445312 C 42.25 77.285156 42.949219 76.144531 43.679688 75.019531 C 44.410156 73.894531 45.164062 72.789062 45.945312 71.703125 C 46.730469 70.613281 47.535156 69.550781 48.367188 68.503906 C 49.203125 67.457031 50.058594 66.433594 50.941406 65.429688 C 51.820312 64.429688 52.726562 63.449219 53.65625 62.492188 C 54.582031 61.535156 55.535156 60.605469 56.507812 59.695312 C 57.480469 58.785156 58.472656 57.902344 59.488281 57.046875 C 60.503906 56.1875 61.535156 55.355469 62.589844 54.550781 C 63.644531 53.742188 64.71875 52.964844 65.808594 52.214844 C 66.902344 51.460938 68.011719 50.738281 69.136719 50.042969 C 70.261719 49.347656 71.402344 48.679688 72.5625 48.042969 C 73.71875 47.40625 74.890625 46.796875 76.078125 46.21875 C 77.265625 45.640625 78.464844 45.09375 79.679688 44.574219 C 80.890625 44.058594 82.113281 43.570312 83.351562 43.113281 C 84.585938 42.660156 85.832031 42.234375 87.089844 41.84375 C 88.347656 41.449219 89.609375 41.089844 90.882812 40.761719 C 92.15625 40.429688 93.4375 40.136719 94.726562 39.871094 C 96.011719 39.609375 97.304688 39.375 98.605469 39.179688 C 99.902344 38.980469 101.207031 38.8125 102.511719 38.679688 C 103.816406 38.546875 105.128906 38.449219 106.4375 38.382812 C 107.75 38.316406 109.0625 38.28125 110.375 38.28125 C 111.6875 38.28125 113 38.316406 114.308594 38.382812 C 115.621094 38.449219 116.929688 38.546875 118.234375 38.679688 C 119.542969 38.8125 120.84375 38.980469 122.144531 39.179688 C 123.441406 39.375 124.734375 39.609375 126.023438 39.871094 C 127.308594 40.136719 128.589844 40.429688 129.863281 40.761719 C 131.136719 41.089844 132.402344 41.449219 133.660156 41.84375 C 134.914062 42.234375 136.160156 42.660156 137.398438 43.113281 C 138.632812 43.570312 139.855469 44.058594 141.070312 44.574219 C 142.28125 45.09375 143.484375 45.640625 144.667969 46.21875 C 145.855469 46.796875 147.027344 47.40625 148.1875 48.042969 C 149.34375 48.679688 150.484375 49.347656 151.613281 50.042969 C 152.738281 50.738281 153.847656 51.460938 154.9375 52.214844 C 156.03125 52.964844 157.101562 53.742188 158.15625 54.550781 C 159.210938 55.355469 160.246094 56.1875 161.261719 57.046875 C 162.273438 57.902344 163.269531 58.785156 164.242188 59.695312 C 165.214844 60.605469 166.164062 61.535156 167.09375 62.492188 C 168.019531 63.449219 168.925781 64.429688 169.808594 65.429688 C 170.6875 66.433594 171.546875 67.457031 172.378906 68.503906 C 173.210938 69.550781 174.019531 70.613281 174.800781 71.703125 C 175.582031 72.789062 176.339844 73.894531 177.070312 75.019531 C 177.796875 76.144531 178.5 77.285156 179.175781 78.445312 C 179.851562 79.605469 180.496094 80.78125 181.117188 81.976562 C 181.734375 83.167969 182.324219 84.375 182.886719 85.601562 C 183.445312 86.824219 183.980469 88.058594 184.480469 89.308594 C 184.984375 90.558594 185.457031 91.820312 185.898438 93.09375 C 186.339844 94.367188 186.75 95.652344 187.132812 96.945312 C 187.515625 98.242188 187.863281 99.542969 188.183594 100.855469 C 188.503906 102.167969 188.789062 103.488281 189.046875 104.816406 C 189.300781 106.140625 189.527344 107.472656 189.71875 108.8125 C 189.910156 110.148438 190.070312 111.492188 190.199219 112.839844 C 190.328125 114.183594 190.425781 115.535156 190.492188 116.882812 C 190.554688 118.234375 190.585938 119.585938 190.585938 120.941406 Z M 190.585938 120.941406 " fill-opacity="1" fill-rule="nonzero"/>
		<g clip-path="url(#9e81637634)">
		<path fill="#fff" d="M 220.800781 120.941406 C 220.800781 59.59375 172.285156 9.546875 112.664062 9.546875 C 53.046875 9.546875 4.53125 59.59375 4.53125 120.941406 C 4.503906 125.167969 4.714844 129.382812 5.164062 133.585938 C 5.613281 137.789062 6.296875 141.953125 7.21875 146.082031 C 8.140625 150.207031 9.292969 154.265625 10.671875 158.261719 C 12.054688 162.257812 13.65625 166.160156 15.480469 169.976562 C 17.304688 173.789062 19.335938 177.488281 21.578125 181.070312 C 23.820312 184.65625 26.257812 188.097656 28.890625 191.40625 C 31.523438 194.714844 34.335938 197.863281 37.324219 200.851562 C 40.3125 203.839844 43.460938 206.648438 46.769531 209.28125 C 51.410156 212.996094 56.332031 216.292969 61.53125 219.171875 C 66.734375 222.050781 72.136719 224.472656 77.75 226.433594 C 83.359375 228.398438 89.097656 229.875 94.957031 230.863281 C 100.820312 231.855469 106.722656 232.34375 112.664062 232.332031 C 172.285156 232.332031 220.800781 182.367188 220.800781 120.941406 Z M 110.375 210.054688 C 62.585938 210.054688 23.707031 170.082031 23.707031 120.941406 C 23.707031 71.796875 62.585938 31.839844 110.375 31.839844 C 160.582031 31.839844 197.042969 69.3125 197.042969 120.941406 C 197.042969 170.082031 158.164062 210.054688 110.375 210.054688 Z M 110.375 210.054688 " fill-opacity="1" fill-rule="nonzero"/>
		</g>
		<g clip-path="url(#dd144d300e)"><g mask="url(#fa94c6b9c7)"><g transform="matrix(0.199782, 0, 0, 0.199246, 46.833998, 78.930894)">
		<image x="0" y="0" width="641" xlink:href="image/fccRibbon.jpg" height="436" preserveAspectRatio="xMidYMid meet"/>
		</g></g></g></svg>