<?xml version="1.0" encoding="UTF-8" standalone="no"?>
<!DOCTYPE svg PUBLIC "-//W3C//DTD SVG 1.1//EN" "http://www.w3.org/Graphics/SVG/1.1/DTD/svg11.dtd">
<svg xmlns="http://www.w3.org/2000/svg" version="1.1" viewBox="0.00 0.00 450.00 450.00">
<g stroke-width="2.00" fill="none" stroke-linecap="butt">

</g>

<path fill="#FFF" d="
  M 197.50 56.91
  L 197.50 19.84
  A 0.34 0.34 0.0 0 1 197.84 19.50
  L 216.41 19.50
  A 0.34 0.34 0.0 0 1 216.75 19.84
  L 216.75 75.91
  A 0.34 0.34 0.0 0 1 216.41 76.25
  L 171.34 76.25
  A 0.34 0.34 0.0 0 1 171.00 75.91
  L 171.00 57.59
  A 0.34 0.34 0.0 0 1 171.34 57.25
  L 197.16 57.25
  A 0.34 0.34 0.0 0 0 197.50 56.91
  Z"
/>
<path fill="#FFF" d="
  M 254.08 35.82
  L 278.91 62.67
  A 0.34 0.34 0.0 0 1 279.00 62.90
  L 279.00 75.91
  A 0.34 0.34 0.0 0 1 278.66 76.25
  L 226.34 76.25
  A 0.34 0.34 0.0 0 1 226.00 75.91
  L 226.00 60.84
  A 0.34 0.34 0.0 0 1 226.34 60.50
  L 250.58 60.50
  A 0.34 0.34 0.0 0 0 250.83 59.93
  L 226.09 33.07
  A 0.34 0.34 0.0 0 1 226.00 32.84
  L 226.00 19.84
  A 0.34 0.34 0.0 0 1 226.34 19.50
  L 277.66 19.50
  A 0.34 0.34 0.0 0 1 278.00 19.84
  L 278.00 34.91
  A 0.34 0.34 0.0 0 1 277.66 35.25
  L 254.33 35.25
  A 0.34 0.34 0.0 0 0 254.08 35.82
  Z"
/>
</svg>


