<?xml version="1.0" encoding="UTF-8" standalone="no"?>
<!DOCTYPE svg PUBLIC "-//W3C//DTD SVG 1.1//EN" "http://www.w3.org/Graphics/SVG/1.1/DTD/svg11.dtd">
<svg xmlns="http://www.w3.org/2000/svg" version="1.1" viewBox="0.00 0.00 450.00 450.00">
<g stroke-width="2.00" fill="none" stroke-linecap="butt">

</g>

<path fill="#FFF" d="
  M 197.50 56.91
  L 197.50 19.84
  A 0.34 0.34 0.0 0 1 197.84 19.50
  L 216.41 19.50
  A 0.34 0.34 0.0 0 1 216.75 19.84
  L 216.75 75.91
  A 0.34 0.34 0.0 0 1 216.41 76.25
  L 171.34 76.25
  A 0.34 0.34 0.0 0 1 171.00 75.91
  L 171.00 57.59
  A 0.34 0.34 0.0 0 1 171.34 57.25
  L 197.16 57.25
  A 0.34 0.34 0.0 0 0 197.50 56.91
  Z"
/>
<path fill="#FFF" d="
  M 254.08 35.82
  L 278.91 62.67
  A 0.34 0.34 0.0 0 1 279.00 62.90
  L 279.00 75.91
  A 0.34 0.34 0.0 0 1 278.66 76.25
  L 226.34 76.25
  A 0.34 0.34 0.0 0 1 226.00 75.91
  L 226.00 60.84
  A 0.34 0.34 0.0 0 1 226.34 60.50
  L 250.58 60.50
  A 0.34 0.34 0.0 0 0 250.83 59.93
  L 226.09 33.07
  A 0.34 0.34 0.0 0 1 226.00 32.84
  L 226.00 19.84
  A 0.34 0.34 0.0 0 1 226.34 19.50
  L 277.66 19.50
  A 0.34 0.34 0.0 0 1 278.00 19.84
  L 278.00 34.91
  A 0.34 0.34 0.0 0 1 277.66 35.25
  L 254.33 35.25
  A 0.34 0.34 0.0 0 0 254.08 35.82
  Z"
/>
<path fill="#e4a229" d="
  M 346.54 405.92
  L 224.93 439.62
  A 0.34 0.34 0.0 0 1 224.75 439.62
  L 103.45 405.96
  A 0.34 0.34 0.0 0 1 103.20 405.67
  L 76.15 102.37
  A 0.34 0.34 0.0 0 1 76.49 102.00
  L 373.51 102.00
  A 0.34 0.34 0.0 0 1 373.85 102.37
  L 346.79 405.63
  A 0.34 0.34 0.0 0 1 346.54 405.92
  Z
  M 225.21 140.77
  L 156.11 140.76
  A 0.93 0.93 0.0 0 0 155.18 141.60
  L 143.02 275.75
  Q 142.95 276.49 143.70 276.49
  L 223.77 276.49
  L 224.22 276.51
  Q 224.56 278.42 224.57 280.25
  Q 224.66 306.34 224.79 332.44
  Q 224.80 333.63 225.39 335.45
  Q 224.87 335.38 224.44 335.84
  L 184.13 324.96
  A 1.40 1.39 -85.2 0 1 183.10 323.74
  L 180.61 295.80
  A 0.88 0.88 0.0 0 0 179.73 295.00
  L 143.28 295.00
  Q 142.82 295.00 142.86 295.46
  L 148.03 352.76
  A 1.24 1.24 0.0 0 0 148.93 353.84
  L 223.68 374.62
  Q 223.75 374.39 224.53 374.87
  Q 224.42 375.35 224.66 375.83
  Q 224.85 376.21 224.85 376.63
  L 224.70 412.52
  A 0.70 0.70 0.0 0 0 225.58 413.19
  L 322.77 386.34
  Q 323.33 386.19 323.38 385.62
  L 346.31 128.13
  Q 346.48 126.29 344.63 126.29
  L 225.25 126.31
  Q 224.62 126.31 224.65 126.94
  L 225.21 140.77
  Z"
/>
<path fill="#f1c027" d="
  M 224.53 374.87
  L 300.37 353.85
  A 0.97 0.97 0.0 0 0 301.08 353.00
  L 311.18 239.76
  A 0.71 0.70 -87.4 0 0 310.48 238.99
  L 224.83 238.99
  L 224.80 179.84
  L 269.77 182.31
  Q 270.18 182.33 270.22 182.75
  L 273.60 220.35
  A 0.43 0.43 0.0 0 0 274.03 220.74
  L 310.75 220.78
  Q 311.22 220.78 311.18 220.31
  L 304.13 141.25
  Q 304.09 140.82 303.65 140.82
  L 225.21 140.77
  L 224.65 126.94
  Q 224.62 126.31 225.25 126.31
  L 344.63 126.29
  Q 346.48 126.29 346.31 128.13
  L 323.38 385.62
  Q 323.33 386.19 322.77 386.34
  L 225.58 413.19
  A 0.70 0.70 0.0 0 1 224.70 412.52
  L 224.85 376.63
  Q 224.85 376.21 224.66 375.83
  Q 224.42 375.35 224.53 374.87
  Z"
/>
<path fill="#ecedee" d="
  M 225.21 140.77
  Q 225.04 142.92 225.21 149.00
  Q 225.53 160.34 224.97 178.75
  Q 224.96 179.09 224.51 179.91
  L 189.81 180.83
  A 0.43 0.42 1.5 0 0 189.39 181.22
  L 184.16 237.74
  Q 184.04 239.01 185.32 239.01
  L 224.19 239.01
  L 224.39 274.06
  Q 224.39 274.54 224.24 275.00
  L 223.77 276.49
  L 143.70 276.49
  Q 142.95 276.49 143.02 275.75
  L 155.18 141.60
  A 0.93 0.93 0.0 0 1 156.11 140.76
  L 225.21 140.77
  Z"
/>
<path fill="#ffffff" d="
  M 225.21 140.77
  L 303.65 140.82
  Q 304.09 140.82 304.13 141.25
  L 311.18 220.31
  Q 311.22 220.78 310.75 220.78
  L 274.03 220.74
  A 0.43 0.43 0.0 0 1 273.60 220.35
  L 270.22 182.75
  Q 270.18 182.33 269.77 182.31
  L 224.80 179.84
  Q 225.32 180.23 224.51 179.91
  Q 224.96 179.09 224.97 178.75
  Q 225.53 160.34 225.21 149.00
  Q 225.04 142.92 225.21 140.77
  Z"
/>
<path fill="#e4a229" d="
  M 224.51 179.91
  Q 225.32 180.23 224.80 179.84
  L 224.83 238.99
  L 224.19 239.01
  L 185.32 239.01
  Q 184.04 239.01 184.16 237.74
  L 189.39 181.22
  A 0.43 0.42 1.5 0 1 189.81 180.83
  L 224.51 179.91
  Z"
/>
<path fill="#ffffff" d="
  M 224.19 239.01
  L 224.83 238.99
  L 310.48 238.99
  A 0.71 0.70 -87.4 0 1 311.18 239.76
  L 301.08 353.00
  A 0.97 0.97 0.0 0 1 300.37 353.85
  L 224.53 374.87
  Q 223.75 374.39 223.68 374.62
  L 224.35 372.95
  Q 224.54 372.49 224.54 372.00
  L 224.44 335.84
  Q 224.87 335.38 225.39 335.45
  L 265.33 324.81
  Q 265.94 324.64 265.99 324.02
  L 270.23 277.26
  Q 270.30 276.49 269.53 276.49
  L 224.22 276.51
  L 223.77 276.49
  L 224.24 275.00
  Q 224.39 274.54 224.39 274.06
  L 224.19 239.01
  Z"
/>
<path fill="#f1c027" d="
  M 225.39 335.45
  Q 224.80 333.63 224.79 332.44
  Q 224.66 306.34 224.57 280.25
  Q 224.56 278.42 224.22 276.51
  L 269.53 276.49
  Q 270.30 276.49 270.23 277.26
  L 265.99 324.02
  Q 265.94 324.64 265.33 324.81
  L 225.39 335.45
  Z"
/>
<path fill="#ecedee" d="
  M 224.44 335.84
  L 224.54 372.00
  Q 224.54 372.49 224.35 372.95
  L 223.68 374.62
  L 148.93 353.84
  A 1.24 1.24 0.0 0 1 148.03 352.76
  L 142.86 295.46
  Q 142.82 295.00 143.28 295.00
  L 179.73 295.00
  A 0.88 0.88 0.0 0 1 180.61 295.80
  L 183.10 323.74
  A 1.40 1.39 -85.2 0 0 184.13 324.96
  L 224.44 335.84
  Z"
/>
</svg>


