<?xml version="1.0" standalone="no"?>
<svg xmlns="http://www.w3.org/2000/svg" width="500" height="500"><defs><clipPath id="clip-path-dot-color"><rect x="29" y="101" width="9" height="9" transform="rotate(0,33.5,105.5)"/><rect x="29" y="155" width="9" height="9" transform="rotate(0,33.5,159.5)"/><rect x="29" y="164" width="9" height="9" transform="rotate(0,33.5,168.5)"/><rect x="29" y="182" width="9" height="9" transform="rotate(0,33.5,186.5)"/><rect x="29" y="200" width="9" height="9" transform="rotate(0,33.5,204.5)"/><rect x="29" y="209" width="9" height="9" transform="rotate(0,33.5,213.5)"/><rect x="29" y="236" width="9" height="9" transform="rotate(0,33.5,240.5)"/><rect x="29" y="245" width="9" height="9" transform="rotate(0,33.5,249.5)"/><rect x="29" y="263" width="9" height="9" transform="rotate(0,33.5,267.5)"/><rect x="29" y="272" width="9" height="9" transform="rotate(0,33.5,276.5)"/><rect x="29" y="281" width="9" height="9" transform="rotate(0,33.5,285.5)"/><rect x="29" y="290" width="9" height="9" transform="rotate(0,33.5,294.5)"/><rect x="29" y="299" width="9" height="9" transform="rotate(0,33.5,303.5)"/><rect x="29" y="317" width="9" height="9" transform="rotate(0,33.5,321.5)"/><rect x="29" y="326" width="9" height="9" transform="rotate(0,33.5,330.5)"/><rect x="29" y="344" width="9" height="9" transform="rotate(0,33.5,348.5)"/><rect x="29" y="362" width="9" height="9" transform="rotate(0,33.5,366.5)"/><rect x="29" y="389" width="9" height="9" transform="rotate(0,33.5,393.5)"/><rect x="38" y="110" width="9" height="9" transform="rotate(0,42.5,114.5)"/><rect x="38" y="146" width="9" height="9" transform="rotate(0,42.5,150.5)"/><rect x="38" y="164" width="9" height="9" transform="rotate(0,42.5,168.5)"/><rect x="38" y="182" width="9" height="9" transform="rotate(0,42.5,186.5)"/><rect x="38" y="191" width="9" height="9" transform="rotate(0,42.5,195.5)"/><rect x="38" y="200" width="9" height="9" transform="rotate(0,42.5,204.5)"/><rect x="38" y="209" width="9" height="9" transform="rotate(0,42.5,213.5)"/><rect x="38" y="227" width="9" height="9" transform="rotate(0,42.5,231.5)"/><rect x="38" y="236" width="9" height="9" transform="rotate(0,42.5,240.5)"/><rect x="38" y="245" width="9" height="9" transform="rotate(0,42.5,249.5)"/><rect x="38" y="272" width="9" height="9" transform="rotate(0,42.5,276.5)"/><rect x="38" y="281" width="9" height="9" transform="rotate(0,42.5,285.5)"/><rect x="38" y="290" width="9" height="9" transform="rotate(0,42.5,294.5)"/><rect x="38" y="326" width="9" height="9" transform="rotate(0,42.5,330.5)"/><rect x="38" y="335" width="9" height="9" transform="rotate(0,42.5,339.5)"/><rect x="38" y="344" width="9" height="9" transform="rotate(0,42.5,348.5)"/><rect x="38" y="353" width="9" height="9" transform="rotate(0,42.5,357.5)"/><rect x="38" y="371" width="9" height="9" transform="rotate(0,42.5,375.5)"/><rect x="38" y="380" width="9" height="9" transform="rotate(0,42.5,384.5)"/><rect x="38" y="389" width="9" height="9" transform="rotate(0,42.5,393.5)"/><rect x="47" y="146" width="9" height="9" transform="rotate(0,51.5,150.5)"/><rect x="47" y="164" width="9" height="9" transform="rotate(0,51.5,168.5)"/><rect x="47" y="191" width="9" height="9" transform="rotate(0,51.5,195.5)"/><rect x="47" y="200" width="9" height="9" transform="rotate(0,51.5,204.5)"/><rect x="47" y="209" width="9" height="9" transform="rotate(0,51.5,213.5)"/><rect x="47" y="227" width="9" height="9" transform="rotate(0,51.5,231.5)"/><rect x="47" y="272" width="9" height="9" transform="rotate(0,51.5,276.5)"/><rect x="47" y="290" width="9" height="9" transform="rotate(0,51.5,294.5)"/><rect x="47" y="317" width="9" height="9" transform="rotate(0,51.5,321.5)"/><rect x="47" y="335" width="9" height="9" transform="rotate(0,51.5,339.5)"/><rect x="47" y="344" width="9" height="9" transform="rotate(0,51.5,348.5)"/><rect x="47" y="380" width="9" height="9" transform="rotate(0,51.5,384.5)"/><rect x="47" y="389" width="9" height="9" transform="rotate(0,51.5,393.5)"/><rect x="56" y="119" width="9" height="9" transform="rotate(0,60.5,123.5)"/><rect x="56" y="128" width="9" height="9" transform="rotate(0,60.5,132.5)"/><rect x="56" y="137" width="9" height="9" transform="rotate(0,60.5,141.5)"/><rect x="56" y="146" width="9" height="9" transform="rotate(0,60.5,150.5)"/><rect x="56" y="164" width="9" height="9" transform="rotate(0,60.5,168.5)"/><rect x="56" y="173" width="9" height="9" transform="rotate(0,60.5,177.5)"/><rect x="56" y="182" width="9" height="9" transform="rotate(0,60.5,186.5)"/><rect x="56" y="191" width="9" height="9" transform="rotate(0,60.5,195.5)"/><rect x="56" y="218" width="9" height="9" transform="rotate(0,60.5,222.5)"/><rect x="56" y="227" width="9" height="9" transform="rotate(0,60.5,231.5)"/><rect x="56" y="254" width="9" height="9" transform="rotate(0,60.5,258.5)"/><rect x="56" y="272" width="9" height="9" transform="rotate(0,60.5,276.5)"/><rect x="56" y="281" width="9" height="9" transform="rotate(0,60.5,285.5)"/><rect x="56" y="290" width="9" height="9" transform="rotate(0,60.5,294.5)"/><rect x="56" y="299" width="9" height="9" transform="rotate(0,60.5,303.5)"/><rect x="56" y="308" width="9" height="9" transform="rotate(0,60.5,312.5)"/><rect x="56" y="335" width="9" height="9" transform="rotate(0,60.5,339.5)"/><rect x="56" y="344" width="9" height="9" transform="rotate(0,60.5,348.5)"/><rect x="56" y="353" width="9" height="9" transform="rotate(0,60.5,357.5)"/><rect x="56" y="380" width="9" height="9" transform="rotate(0,60.5,384.5)"/><rect x="65" y="101" width="9" height="9" transform="rotate(0,69.5,105.5)"/><rect x="65" y="119" width="9" height="9" transform="rotate(0,69.5,123.5)"/><rect x="65" y="128" width="9" height="9" transform="rotate(0,69.5,132.5)"/><rect x="65" y="137" width="9" height="9" transform="rotate(0,69.5,141.5)"/><rect x="65" y="164" width="9" height="9" transform="rotate(0,69.5,168.5)"/><rect x="65" y="182" width="9" height="9" transform="rotate(0,69.5,186.5)"/><rect x="65" y="191" width="9" height="9" transform="rotate(0,69.5,195.5)"/><rect x="65" y="209" width="9" height="9" transform="rotate(0,69.5,213.5)"/><rect x="65" y="227" width="9" height="9" transform="rotate(0,69.5,231.5)"/><rect x="65" y="236" width="9" height="9" transform="rotate(0,69.5,240.5)"/><rect x="65" y="245" width="9" height="9" transform="rotate(0,69.5,249.5)"/><rect x="65" y="254" width="9" height="9" transform="rotate(0,69.5,258.5)"/><rect x="65" y="263" width="9" height="9" transform="rotate(0,69.5,267.5)"/><rect x="65" y="272" width="9" height="9" transform="rotate(0,69.5,276.5)"/><rect x="65" y="290" width="9" height="9" transform="rotate(0,69.5,294.5)"/><rect x="65" y="299" width="9" height="9" transform="rotate(0,69.5,303.5)"/><rect x="65" y="317" width="9" height="9" transform="rotate(0,69.5,321.5)"/><rect x="65" y="344" width="9" height="9" transform="rotate(0,69.5,348.5)"/><rect x="65" y="362" width="9" height="9" transform="rotate(0,69.5,366.5)"/><rect x="74" y="101" width="9" height="9" transform="rotate(0,78.5,105.5)"/><rect x="74" y="119" width="9" height="9" transform="rotate(0,78.5,123.5)"/><rect x="74" y="128" width="9" height="9" transform="rotate(0,78.5,132.5)"/><rect x="74" y="146" width="9" height="9" transform="rotate(0,78.5,150.5)"/><rect x="74" y="155" width="9" height="9" transform="rotate(0,78.5,159.5)"/><rect x="74" y="164" width="9" height="9" transform="rotate(0,78.5,168.5)"/><rect x="74" y="173" width="9" height="9" transform="rotate(0,78.5,177.5)"/><rect x="74" y="182" width="9" height="9" transform="rotate(0,78.5,186.5)"/><rect x="74" y="200" width="9" height="9" transform="rotate(0,78.5,204.5)"/><rect x="74" y="218" width="9" height="9" transform="rotate(0,78.5,222.5)"/><rect x="74" y="227" width="9" height="9" transform="rotate(0,78.5,231.5)"/><rect x="74" y="263" width="9" height="9" transform="rotate(0,78.5,267.5)"/><rect x="74" y="281" width="9" height="9" transform="rotate(0,78.5,285.5)"/><rect x="74" y="326" width="9" height="9" transform="rotate(0,78.5,330.5)"/><rect x="74" y="335" width="9" height="9" transform="rotate(0,78.5,339.5)"/><rect x="74" y="344" width="9" height="9" transform="rotate(0,78.5,348.5)"/><rect x="74" y="353" width="9" height="9" transform="rotate(0,78.5,357.5)"/><rect x="74" y="371" width="9" height="9" transform="rotate(0,78.5,375.5)"/><rect x="83" y="101" width="9" height="9" transform="rotate(0,87.5,105.5)"/><rect x="83" y="119" width="9" height="9" transform="rotate(0,87.5,123.5)"/><rect x="83" y="137" width="9" height="9" transform="rotate(0,87.5,141.5)"/><rect x="83" y="155" width="9" height="9" transform="rotate(0,87.5,159.5)"/><rect x="83" y="173" width="9" height="9" transform="rotate(0,87.5,177.5)"/><rect x="83" y="191" width="9" height="9" transform="rotate(0,87.5,195.5)"/><rect x="83" y="209" width="9" height="9" transform="rotate(0,87.5,213.5)"/><rect x="83" y="227" width="9" height="9" transform="rotate(0,87.5,231.5)"/><rect x="83" y="245" width="9" height="9" transform="rotate(0,87.5,249.5)"/><rect x="83" y="263" width="9" height="9" transform="rotate(0,87.5,267.5)"/><rect x="83" y="281" width="9" height="9" transform="rotate(0,87.5,285.5)"/><rect x="83" y="299" width="9" height="9" transform="rotate(0,87.5,303.5)"/><rect x="83" y="317" width="9" height="9" transform="rotate(0,87.5,321.5)"/><rect x="83" y="335" width="9" height="9" transform="rotate(0,87.5,339.5)"/><rect x="83" y="353" width="9" height="9" transform="rotate(0,87.5,357.5)"/><rect x="83" y="371" width="9" height="9" transform="rotate(0,87.5,375.5)"/><rect x="83" y="389" width="9" height="9" transform="rotate(0,87.5,393.5)"/><rect x="92" y="128" width="9" height="9" transform="rotate(0,96.5,132.5)"/><rect x="92" y="137" width="9" height="9" transform="rotate(0,96.5,141.5)"/><rect x="92" y="155" width="9" height="9" transform="rotate(0,96.5,159.5)"/><rect x="92" y="173" width="9" height="9" transform="rotate(0,96.5,177.5)"/><rect x="92" y="200" width="9" height="9" transform="rotate(0,96.5,204.5)"/><rect x="92" y="218" width="9" height="9" transform="rotate(0,96.5,222.5)"/><rect x="92" y="227" width="9" height="9" transform="rotate(0,96.5,231.5)"/><rect x="92" y="263" width="9" height="9" transform="rotate(0,96.5,267.5)"/><rect x="92" y="326" width="9" height="9" transform="rotate(0,96.5,330.5)"/><rect x="92" y="344" width="9" height="9" transform="rotate(0,96.5,348.5)"/><rect x="92" y="362" width="9" height="9" transform="rotate(0,96.5,366.5)"/><rect x="92" y="371" width="9" height="9" transform="rotate(0,96.5,375.5)"/><rect x="92" y="389" width="9" height="9" transform="rotate(0,96.5,393.5)"/><rect x="101" y="38" width="9" height="9" transform="rotate(0,105.5,42.5)"/><rect x="101" y="47" width="9" height="9" transform="rotate(0,105.5,51.5)"/><rect x="101" y="56" width="9" height="9" transform="rotate(0,105.5,60.5)"/><rect x="101" y="65" width="9" height="9" transform="rotate(0,105.5,69.5)"/><rect x="101" y="74" width="9" height="9" transform="rotate(0,105.5,78.5)"/><rect x="101" y="83" width="9" height="9" transform="rotate(0,105.5,87.5)"/><rect x="101" y="92" width="9" height="9" transform="rotate(0,105.5,96.5)"/><rect x="101" y="137" width="9" height="9" transform="rotate(0,105.5,141.5)"/><rect x="101" y="155" width="9" height="9" transform="rotate(0,105.5,159.5)"/><rect x="101" y="173" width="9" height="9" transform="rotate(0,105.5,177.5)"/><rect x="101" y="182" width="9" height="9" transform="rotate(0,105.5,186.5)"/><rect x="101" y="209" width="9" height="9" transform="rotate(0,105.5,213.5)"/><rect x="101" y="218" width="9" height="9" transform="rotate(0,105.5,222.5)"/><rect x="101" y="227" width="9" height="9" transform="rotate(0,105.5,231.5)"/><rect x="101" y="236" width="9" height="9" transform="rotate(0,105.5,240.5)"/><rect x="101" y="245" width="9" height="9" transform="rotate(0,105.5,249.5)"/><rect x="101" y="254" width="9" height="9" transform="rotate(0,105.5,258.5)"/><rect x="101" y="263" width="9" height="9" transform="rotate(0,105.5,267.5)"/><rect x="101" y="281" width="9" height="9" transform="rotate(0,105.5,285.5)"/><rect x="101" y="290" width="9" height="9" transform="rotate(0,105.5,294.5)"/><rect x="101" y="299" width="9" height="9" transform="rotate(0,105.5,303.5)"/><rect x="101" y="308" width="9" height="9" transform="rotate(0,105.5,312.5)"/><rect x="101" y="317" width="9" height="9" transform="rotate(0,105.5,321.5)"/><rect x="101" y="344" width="9" height="9" transform="rotate(0,105.5,348.5)"/><rect x="101" y="353" width="9" height="9" transform="rotate(0,105.5,357.5)"/><rect x="101" y="362" width="9" height="9" transform="rotate(0,105.5,366.5)"/><rect x="101" y="371" width="9" height="9" transform="rotate(0,105.5,375.5)"/><rect x="101" y="380" width="9" height="9" transform="rotate(0,105.5,384.5)"/><rect x="101" y="389" width="9" height="9" transform="rotate(0,105.5,393.5)"/><rect x="101" y="416" width="9" height="9" transform="rotate(0,105.5,420.5)"/><rect x="101" y="425" width="9" height="9" transform="rotate(0,105.5,429.5)"/><rect x="101" y="461" width="9" height="9" transform="rotate(0,105.5,465.5)"/><rect x="110" y="29" width="9" height="9" transform="rotate(0,114.5,33.5)"/><rect x="110" y="38" width="9" height="9" transform="rotate(0,114.5,42.5)"/><rect x="110" y="56" width="9" height="9" transform="rotate(0,114.5,60.5)"/><rect x="110" y="65" width="9" height="9" transform="rotate(0,114.5,69.5)"/><rect x="110" y="92" width="9" height="9" transform="rotate(0,114.5,96.5)"/><rect x="110" y="110" width="9" height="9" transform="rotate(0,114.5,114.5)"/><rect x="110" y="119" width="9" height="9" transform="rotate(0,114.5,123.5)"/><rect x="110" y="128" width="9" height="9" transform="rotate(0,114.5,132.5)"/><rect x="110" y="173" width="9" height="9" transform="rotate(0,114.5,177.5)"/><rect x="110" y="218" width="9" height="9" transform="rotate(0,114.5,222.5)"/><rect x="110" y="236" width="9" height="9" transform="rotate(0,114.5,240.5)"/><rect x="110" y="263" width="9" height="9" transform="rotate(0,114.5,267.5)"/><rect x="110" y="272" width="9" height="9" transform="rotate(0,114.5,276.5)"/><rect x="110" y="290" width="9" height="9" transform="rotate(0,114.5,294.5)"/><rect x="110" y="299" width="9" height="9" transform="rotate(0,114.5,303.5)"/><rect x="110" y="317" width="9" height="9" transform="rotate(0,114.5,321.5)"/><rect x="110" y="344" width="9" height="9" transform="rotate(0,114.5,348.5)"/><rect x="110" y="353" width="9" height="9" transform="rotate(0,114.5,357.5)"/><rect x="110" y="362" width="9" height="9" transform="rotate(0,114.5,366.5)"/><rect x="110" y="380" width="9" height="9" transform="rotate(0,114.5,384.5)"/><rect x="110" y="398" width="9" height="9" transform="rotate(0,114.5,402.5)"/><rect x="110" y="407" width="9" height="9" transform="rotate(0,114.5,411.5)"/><rect x="110" y="425" width="9" height="9" transform="rotate(0,114.5,429.5)"/><rect x="110" y="434" width="9" height="9" transform="rotate(0,114.5,438.5)"/><rect x="110" y="452" width="9" height="9" transform="rotate(0,114.5,456.5)"/><rect x="119" y="29" width="9" height="9" transform="rotate(0,123.5,33.5)"/><rect x="119" y="47" width="9" height="9" transform="rotate(0,123.5,51.5)"/><rect x="119" y="74" width="9" height="9" transform="rotate(0,123.5,78.5)"/><rect x="119" y="83" width="9" height="9" transform="rotate(0,123.5,87.5)"/><rect x="119" y="92" width="9" height="9" transform="rotate(0,123.5,96.5)"/><rect x="119" y="110" width="9" height="9" transform="rotate(0,123.5,114.5)"/><rect x="119" y="119" width="9" height="9" transform="rotate(0,123.5,123.5)"/><rect x="119" y="146" width="9" height="9" transform="rotate(0,123.5,150.5)"/><rect x="119" y="173" width="9" height="9" transform="rotate(0,123.5,177.5)"/><rect x="119" y="182" width="9" height="9" transform="rotate(0,123.5,186.5)"/><rect x="119" y="191" width="9" height="9" transform="rotate(0,123.5,195.5)"/><rect x="119" y="200" width="9" height="9" transform="rotate(0,123.5,204.5)"/><rect x="119" y="209" width="9" height="9" transform="rotate(0,123.5,213.5)"/><rect x="119" y="218" width="9" height="9" transform="rotate(0,123.5,222.5)"/><rect x="119" y="227" width="9" height="9" transform="rotate(0,123.5,231.5)"/><rect x="119" y="236" width="9" height="9" transform="rotate(0,123.5,240.5)"/><rect x="119" y="263" width="9" height="9" transform="rotate(0,123.5,267.5)"/><rect x="119" y="290" width="9" height="9" transform="rotate(0,123.5,294.5)"/><rect x="119" y="308" width="9" height="9" transform="rotate(0,123.5,312.5)"/><rect x="119" y="317" width="9" height="9" transform="rotate(0,123.5,321.5)"/><rect x="119" y="335" width="9" height="9" transform="rotate(0,123.5,339.5)"/><rect x="119" y="344" width="9" height="9" transform="rotate(0,123.5,348.5)"/><rect x="119" y="353" width="9" height="9" transform="rotate(0,123.5,357.5)"/><rect x="119" y="371" width="9" height="9" transform="rotate(0,123.5,375.5)"/><rect x="119" y="380" width="9" height="9" transform="rotate(0,123.5,384.5)"/><rect x="119" y="398" width="9" height="9" transform="rotate(0,123.5,402.5)"/><rect x="119" y="416" width="9" height="9" transform="rotate(0,123.5,420.5)"/><rect x="119" y="425" width="9" height="9" transform="rotate(0,123.5,429.5)"/><rect x="119" y="452" width="9" height="9" transform="rotate(0,123.5,456.5)"/><rect x="119" y="461" width="9" height="9" transform="rotate(0,123.5,465.5)"/><rect x="128" y="92" width="9" height="9" transform="rotate(0,132.5,96.5)"/><rect x="128" y="101" width="9" height="9" transform="rotate(0,132.5,105.5)"/><rect x="128" y="110" width="9" height="9" transform="rotate(0,132.5,114.5)"/><rect x="128" y="119" width="9" height="9" transform="rotate(0,132.5,123.5)"/><rect x="128" y="128" width="9" height="9" transform="rotate(0,132.5,132.5)"/><rect x="128" y="146" width="9" height="9" transform="rotate(0,132.5,150.5)"/><rect x="128" y="182" width="9" height="9" transform="rotate(0,132.5,186.5)"/><rect x="128" y="200" width="9" height="9" transform="rotate(0,132.5,204.5)"/><rect x="128" y="218" width="9" height="9" transform="rotate(0,132.5,222.5)"/><rect x="128" y="236" width="9" height="9" transform="rotate(0,132.5,240.5)"/><rect x="128" y="245" width="9" height="9" transform="rotate(0,132.5,249.5)"/><rect x="128" y="254" width="9" height="9" transform="rotate(0,132.5,258.5)"/><rect x="128" y="281" width="9" height="9" transform="rotate(0,132.5,285.5)"/><rect x="128" y="290" width="9" height="9" transform="rotate(0,132.5,294.5)"/><rect x="128" y="317" width="9" height="9" transform="rotate(0,132.5,321.5)"/><rect x="128" y="335" width="9" height="9" transform="rotate(0,132.5,339.5)"/><rect x="128" y="362" width="9" height="9" transform="rotate(0,132.5,366.5)"/><rect x="128" y="380" width="9" height="9" transform="rotate(0,132.5,384.5)"/><rect x="128" y="398" width="9" height="9" transform="rotate(0,132.5,402.5)"/><rect x="128" y="425" width="9" height="9" transform="rotate(0,132.5,429.5)"/><rect x="128" y="452" width="9" height="9" transform="rotate(0,132.5,456.5)"/><rect x="128" y="461" width="9" height="9" transform="rotate(0,132.5,465.5)"/><rect x="137" y="29" width="9" height="9" transform="rotate(0,141.5,33.5)"/><rect x="137" y="47" width="9" height="9" transform="rotate(0,141.5,51.5)"/><rect x="137" y="65" width="9" height="9" transform="rotate(0,141.5,69.5)"/><rect x="137" y="74" width="9" height="9" transform="rotate(0,141.5,78.5)"/><rect x="137" y="83" width="9" height="9" transform="rotate(0,141.5,87.5)"/><rect x="137" y="92" width="9" height="9" transform="rotate(0,141.5,96.5)"/><rect x="137" y="101" width="9" height="9" transform="rotate(0,141.5,105.5)"/><rect x="137" y="110" width="9" height="9" transform="rotate(0,141.5,114.5)"/><rect x="137" y="146" width="9" height="9" transform="rotate(0,141.5,150.5)"/><rect x="137" y="164" width="9" height="9" transform="rotate(0,141.5,168.5)"/><rect x="137" y="218" width="9" height="9" transform="rotate(0,141.5,222.5)"/><rect x="137" y="236" width="9" height="9" transform="rotate(0,141.5,240.5)"/><rect x="137" y="245" width="9" height="9" transform="rotate(0,141.5,249.5)"/><rect x="137" y="254" width="9" height="9" transform="rotate(0,141.5,258.5)"/><rect x="137" y="290" width="9" height="9" transform="rotate(0,141.5,294.5)"/><rect x="137" y="299" width="9" height="9" transform="rotate(0,141.5,303.5)"/><rect x="137" y="353" width="9" height="9" transform="rotate(0,141.5,357.5)"/><rect x="137" y="380" width="9" height="9" transform="rotate(0,141.5,384.5)"/><rect x="137" y="389" width="9" height="9" transform="rotate(0,141.5,393.5)"/><rect x="137" y="398" width="9" height="9" transform="rotate(0,141.5,402.5)"/><rect x="137" y="416" width="9" height="9" transform="rotate(0,141.5,420.5)"/><rect x="137" y="434" width="9" height="9" transform="rotate(0,141.5,438.5)"/><rect x="137" y="443" width="9" height="9" transform="rotate(0,141.5,447.5)"/><rect x="137" y="452" width="9" height="9" transform="rotate(0,141.5,456.5)"/><rect x="137" y="461" width="9" height="9" transform="rotate(0,141.5,465.5)"/><rect x="146" y="29" width="9" height="9" transform="rotate(0,150.5,33.5)"/><rect x="146" y="38" width="9" height="9" transform="rotate(0,150.5,42.5)"/><rect x="146" y="65" width="9" height="9" transform="rotate(0,150.5,69.5)"/><rect x="146" y="101" width="9" height="9" transform="rotate(0,150.5,105.5)"/><rect x="146" y="110" width="9" height="9" transform="rotate(0,150.5,114.5)"/><rect x="146" y="119" width="9" height="9" transform="rotate(0,150.5,123.5)"/><rect x="146" y="128" width="9" height="9" transform="rotate(0,150.5,132.5)"/><rect x="146" y="137" width="9" height="9" transform="rotate(0,150.5,141.5)"/><rect x="146" y="146" width="9" height="9" transform="rotate(0,150.5,150.5)"/><rect x="146" y="155" width="9" height="9" transform="rotate(0,150.5,159.5)"/><rect x="146" y="200" width="9" height="9" transform="rotate(0,150.5,204.5)"/><rect x="146" y="218" width="9" height="9" transform="rotate(0,150.5,222.5)"/><rect x="146" y="227" width="9" height="9" transform="rotate(0,150.5,231.5)"/><rect x="146" y="281" width="9" height="9" transform="rotate(0,150.5,285.5)"/><rect x="146" y="290" width="9" height="9" transform="rotate(0,150.5,294.5)"/><rect x="146" y="299" width="9" height="9" transform="rotate(0,150.5,303.5)"/><rect x="146" y="344" width="9" height="9" transform="rotate(0,150.5,348.5)"/><rect x="146" y="362" width="9" height="9" transform="rotate(0,150.5,366.5)"/><rect x="146" y="380" width="9" height="9" transform="rotate(0,150.5,384.5)"/><rect x="146" y="398" width="9" height="9" transform="rotate(0,150.5,402.5)"/><rect x="146" y="407" width="9" height="9" transform="rotate(0,150.5,411.5)"/><rect x="146" y="443" width="9" height="9" transform="rotate(0,150.5,447.5)"/><rect x="155" y="38" width="9" height="9" transform="rotate(0,159.5,42.5)"/><rect x="155" y="47" width="9" height="9" transform="rotate(0,159.5,51.5)"/><rect x="155" y="74" width="9" height="9" transform="rotate(0,159.5,78.5)"/><rect x="155" y="83" width="9" height="9" transform="rotate(0,159.5,87.5)"/><rect x="155" y="92" width="9" height="9" transform="rotate(0,159.5,96.5)"/><rect x="155" y="101" width="9" height="9" transform="rotate(0,159.5,105.5)"/><rect x="155" y="128" width="9" height="9" transform="rotate(0,159.5,132.5)"/><rect x="155" y="137" width="9" height="9" transform="rotate(0,159.5,141.5)"/><rect x="155" y="155" width="9" height="9" transform="rotate(0,159.5,159.5)"/><rect x="155" y="182" width="9" height="9" transform="rotate(0,159.5,186.5)"/><rect x="155" y="191" width="9" height="9" transform="rotate(0,159.5,195.5)"/><rect x="155" y="209" width="9" height="9" transform="rotate(0,159.5,213.5)"/><rect x="155" y="227" width="9" height="9" transform="rotate(0,159.5,231.5)"/><rect x="155" y="236" width="9" height="9" transform="rotate(0,159.5,240.5)"/><rect x="155" y="245" width="9" height="9" transform="rotate(0,159.5,249.5)"/><rect x="155" y="254" width="9" height="9" transform="rotate(0,159.5,258.5)"/><rect x="155" y="263" width="9" height="9" transform="rotate(0,159.5,267.5)"/><rect x="155" y="272" width="9" height="9" transform="rotate(0,159.5,276.5)"/><rect x="155" y="308" width="9" height="9" transform="rotate(0,159.5,312.5)"/><rect x="155" y="326" width="9" height="9" transform="rotate(0,159.5,330.5)"/><rect x="155" y="335" width="9" height="9" transform="rotate(0,159.5,339.5)"/><rect x="155" y="353" width="9" height="9" transform="rotate(0,159.5,357.5)"/><rect x="155" y="371" width="9" height="9" transform="rotate(0,159.5,375.5)"/><rect x="155" y="380" width="9" height="9" transform="rotate(0,159.5,384.5)"/><rect x="155" y="389" width="9" height="9" transform="rotate(0,159.5,393.5)"/><rect x="155" y="398" width="9" height="9" transform="rotate(0,159.5,402.5)"/><rect x="155" y="416" width="9" height="9" transform="rotate(0,159.5,420.5)"/><rect x="155" y="452" width="9" height="9" transform="rotate(0,159.5,456.5)"/><rect x="155" y="461" width="9" height="9" transform="rotate(0,159.5,465.5)"/><rect x="164" y="29" width="9" height="9" transform="rotate(0,168.5,33.5)"/><rect x="164" y="65" width="9" height="9" transform="rotate(0,168.5,69.5)"/><rect x="164" y="74" width="9" height="9" transform="rotate(0,168.5,78.5)"/><rect x="164" y="110" width="9" height="9" transform="rotate(0,168.5,114.5)"/><rect x="164" y="119" width="9" height="9" transform="rotate(0,168.5,123.5)"/><rect x="164" y="128" width="9" height="9" transform="rotate(0,168.5,132.5)"/><rect x="164" y="164" width="9" height="9" transform="rotate(0,168.5,168.5)"/><rect x="164" y="173" width="9" height="9" transform="rotate(0,168.5,177.5)"/><rect x="164" y="191" width="9" height="9" transform="rotate(0,168.5,195.5)"/><rect x="164" y="200" width="9" height="9" transform="rotate(0,168.5,204.5)"/><rect x="164" y="209" width="9" height="9" transform="rotate(0,168.5,213.5)"/><rect x="164" y="218" width="9" height="9" transform="rotate(0,168.5,222.5)"/><rect x="164" y="227" width="9" height="9" transform="rotate(0,168.5,231.5)"/><rect x="164" y="263" width="9" height="9" transform="rotate(0,168.5,267.5)"/><rect x="164" y="272" width="9" height="9" transform="rotate(0,168.5,276.5)"/><rect x="164" y="281" width="9" height="9" transform="rotate(0,168.5,285.5)"/><rect x="164" y="299" width="9" height="9" transform="rotate(0,168.5,303.5)"/><rect x="164" y="317" width="9" height="9" transform="rotate(0,168.5,321.5)"/><rect x="164" y="326" width="9" height="9" transform="rotate(0,168.5,330.5)"/><rect x="164" y="362" width="9" height="9" transform="rotate(0,168.5,366.5)"/><rect x="164" y="380" width="9" height="9" transform="rotate(0,168.5,384.5)"/><rect x="164" y="389" width="9" height="9" transform="rotate(0,168.5,393.5)"/><rect x="164" y="407" width="9" height="9" transform="rotate(0,168.5,411.5)"/><rect x="164" y="425" width="9" height="9" transform="rotate(0,168.5,429.5)"/><rect x="164" y="452" width="9" height="9" transform="rotate(0,168.5,456.5)"/><rect x="164" y="461" width="9" height="9" transform="rotate(0,168.5,465.5)"/><rect x="173" y="29" width="9" height="9" transform="rotate(0,177.5,33.5)"/><rect x="173" y="38" width="9" height="9" transform="rotate(0,177.5,42.5)"/><rect x="173" y="65" width="9" height="9" transform="rotate(0,177.5,69.5)"/><rect x="173" y="83" width="9" height="9" transform="rotate(0,177.5,87.5)"/><rect x="173" y="92" width="9" height="9" transform="rotate(0,177.5,96.5)"/><rect x="173" y="101" width="9" height="9" transform="rotate(0,177.5,105.5)"/><rect x="173" y="128" width="9" height="9" transform="rotate(0,177.5,132.5)"/><rect x="173" y="164" width="9" height="9" transform="rotate(0,177.5,168.5)"/><rect x="173" y="182" width="9" height="9" transform="rotate(0,177.5,186.5)"/><rect x="173" y="191" width="9" height="9" transform="rotate(0,177.5,195.5)"/><rect x="173" y="245" width="9" height="9" transform="rotate(0,177.5,249.5)"/><rect x="173" y="263" width="9" height="9" transform="rotate(0,177.5,267.5)"/><rect x="173" y="281" width="9" height="9" transform="rotate(0,177.5,285.5)"/><rect x="173" y="290" width="9" height="9" transform="rotate(0,177.5,294.5)"/><rect x="173" y="299" width="9" height="9" transform="rotate(0,177.5,303.5)"/><rect x="173" y="308" width="9" height="9" transform="rotate(0,177.5,312.5)"/><rect x="173" y="335" width="9" height="9" transform="rotate(0,177.5,339.5)"/><rect x="173" y="344" width="9" height="9" transform="rotate(0,177.5,348.5)"/><rect x="173" y="353" width="9" height="9" transform="rotate(0,177.5,357.5)"/><rect x="173" y="389" width="9" height="9" transform="rotate(0,177.5,393.5)"/><rect x="173" y="416" width="9" height="9" transform="rotate(0,177.5,420.5)"/><rect x="173" y="443" width="9" height="9" transform="rotate(0,177.5,447.5)"/><rect x="182" y="38" width="9" height="9" transform="rotate(0,186.5,42.5)"/><rect x="182" y="65" width="9" height="9" transform="rotate(0,186.5,69.5)"/><rect x="182" y="92" width="9" height="9" transform="rotate(0,186.5,96.5)"/><rect x="182" y="137" width="9" height="9" transform="rotate(0,186.5,141.5)"/><rect x="182" y="146" width="9" height="9" transform="rotate(0,186.5,150.5)"/><rect x="182" y="155" width="9" height="9" transform="rotate(0,186.5,159.5)"/><rect x="182" y="173" width="9" height="9" transform="rotate(0,186.5,177.5)"/><rect x="182" y="182" width="9" height="9" transform="rotate(0,186.5,186.5)"/><rect x="182" y="191" width="9" height="9" transform="rotate(0,186.5,195.5)"/><rect x="182" y="200" width="9" height="9" transform="rotate(0,186.5,204.5)"/><rect x="182" y="227" width="9" height="9" transform="rotate(0,186.5,231.5)"/><rect x="182" y="236" width="9" height="9" transform="rotate(0,186.5,240.5)"/><rect x="182" y="245" width="9" height="9" transform="rotate(0,186.5,249.5)"/><rect x="182" y="263" width="9" height="9" transform="rotate(0,186.5,267.5)"/><rect x="182" y="299" width="9" height="9" transform="rotate(0,186.5,303.5)"/><rect x="182" y="317" width="9" height="9" transform="rotate(0,186.5,321.5)"/><rect x="182" y="326" width="9" height="9" transform="rotate(0,186.5,330.5)"/><rect x="182" y="362" width="9" height="9" transform="rotate(0,186.5,366.5)"/><rect x="182" y="398" width="9" height="9" transform="rotate(0,186.5,402.5)"/><rect x="182" y="407" width="9" height="9" transform="rotate(0,186.5,411.5)"/><rect x="182" y="416" width="9" height="9" transform="rotate(0,186.5,420.5)"/><rect x="182" y="425" width="9" height="9" transform="rotate(0,186.5,429.5)"/><rect x="182" y="434" width="9" height="9" transform="rotate(0,186.5,438.5)"/><rect x="182" y="443" width="9" height="9" transform="rotate(0,186.5,447.5)"/><rect x="191" y="38" width="9" height="9" transform="rotate(0,195.5,42.5)"/><rect x="191" y="56" width="9" height="9" transform="rotate(0,195.5,60.5)"/><rect x="191" y="65" width="9" height="9" transform="rotate(0,195.5,69.5)"/><rect x="191" y="83" width="9" height="9" transform="rotate(0,195.5,87.5)"/><rect x="191" y="92" width="9" height="9" transform="rotate(0,195.5,96.5)"/><rect x="191" y="101" width="9" height="9" transform="rotate(0,195.5,105.5)"/><rect x="191" y="110" width="9" height="9" transform="rotate(0,195.5,114.5)"/><rect x="191" y="119" width="9" height="9" transform="rotate(0,195.5,123.5)"/><rect x="191" y="137" width="9" height="9" transform="rotate(0,195.5,141.5)"/><rect x="191" y="164" width="9" height="9" transform="rotate(0,195.5,168.5)"/><rect x="191" y="182" width="9" height="9" transform="rotate(0,195.5,186.5)"/><rect x="191" y="200" width="9" height="9" transform="rotate(0,195.5,204.5)"/><rect x="191" y="218" width="9" height="9" transform="rotate(0,195.5,222.5)"/><rect x="191" y="254" width="9" height="9" transform="rotate(0,195.5,258.5)"/><rect x="191" y="281" width="9" height="9" transform="rotate(0,195.5,285.5)"/><rect x="191" y="290" width="9" height="9" transform="rotate(0,195.5,294.5)"/><rect x="191" y="299" width="9" height="9" transform="rotate(0,195.5,303.5)"/><rect x="191" y="326" width="9" height="9" transform="rotate(0,195.5,330.5)"/><rect x="191" y="344" width="9" height="9" transform="rotate(0,195.5,348.5)"/><rect x="191" y="353" width="9" height="9" transform="rotate(0,195.5,357.5)"/><rect x="191" y="362" width="9" height="9" transform="rotate(0,195.5,366.5)"/><rect x="191" y="371" width="9" height="9" transform="rotate(0,195.5,375.5)"/><rect x="191" y="389" width="9" height="9" transform="rotate(0,195.5,393.5)"/><rect x="191" y="398" width="9" height="9" transform="rotate(0,195.5,402.5)"/><rect x="191" y="434" width="9" height="9" transform="rotate(0,195.5,438.5)"/><rect x="191" y="452" width="9" height="9" transform="rotate(0,195.5,456.5)"/><rect x="191" y="461" width="9" height="9" transform="rotate(0,195.5,465.5)"/><rect x="200" y="29" width="9" height="9" transform="rotate(0,204.5,33.5)"/><rect x="200" y="47" width="9" height="9" transform="rotate(0,204.5,51.5)"/><rect x="200" y="65" width="9" height="9" transform="rotate(0,204.5,69.5)"/><rect x="200" y="92" width="9" height="9" transform="rotate(0,204.5,96.5)"/><rect x="200" y="101" width="9" height="9" transform="rotate(0,204.5,105.5)"/><rect x="200" y="119" width="9" height="9" transform="rotate(0,204.5,123.5)"/><rect x="200" y="164" width="9" height="9" transform="rotate(0,204.5,168.5)"/><rect x="200" y="173" width="9" height="9" transform="rotate(0,204.5,177.5)"/><rect x="200" y="182" width="9" height="9" transform="rotate(0,204.5,186.5)"/><rect x="200" y="209" width="9" height="9" transform="rotate(0,204.5,213.5)"/><rect x="200" y="227" width="9" height="9" transform="rotate(0,204.5,231.5)"/><rect x="200" y="245" width="9" height="9" transform="rotate(0,204.5,249.5)"/><rect x="200" y="254" width="9" height="9" transform="rotate(0,204.5,258.5)"/><rect x="200" y="263" width="9" height="9" transform="rotate(0,204.5,267.5)"/><rect x="200" y="290" width="9" height="9" transform="rotate(0,204.5,294.5)"/><rect x="200" y="299" width="9" height="9" transform="rotate(0,204.5,303.5)"/><rect x="200" y="317" width="9" height="9" transform="rotate(0,204.5,321.5)"/><rect x="200" y="362" width="9" height="9" transform="rotate(0,204.5,366.5)"/><rect x="200" y="371" width="9" height="9" transform="rotate(0,204.5,375.5)"/><rect x="200" y="380" width="9" height="9" transform="rotate(0,204.5,384.5)"/><rect x="200" y="407" width="9" height="9" transform="rotate(0,204.5,411.5)"/><rect x="200" y="416" width="9" height="9" transform="rotate(0,204.5,420.5)"/><rect x="200" y="425" width="9" height="9" transform="rotate(0,204.5,429.5)"/><rect x="200" y="452" width="9" height="9" transform="rotate(0,204.5,456.5)"/><rect x="209" y="29" width="9" height="9" transform="rotate(0,213.5,33.5)"/><rect x="209" y="47" width="9" height="9" transform="rotate(0,213.5,51.5)"/><rect x="209" y="56" width="9" height="9" transform="rotate(0,213.5,60.5)"/><rect x="209" y="83" width="9" height="9" transform="rotate(0,213.5,87.5)"/><rect x="209" y="101" width="9" height="9" transform="rotate(0,213.5,105.5)"/><rect x="209" y="110" width="9" height="9" transform="rotate(0,213.5,114.5)"/><rect x="209" y="119" width="9" height="9" transform="rotate(0,213.5,123.5)"/><rect x="209" y="128" width="9" height="9" transform="rotate(0,213.5,132.5)"/><rect x="209" y="146" width="9" height="9" transform="rotate(0,213.5,150.5)"/><rect x="209" y="164" width="9" height="9" transform="rotate(0,213.5,168.5)"/><rect x="209" y="191" width="9" height="9" transform="rotate(0,213.5,195.5)"/><rect x="209" y="200" width="9" height="9" transform="rotate(0,213.5,204.5)"/><rect x="209" y="218" width="9" height="9" transform="rotate(0,213.5,222.5)"/><rect x="209" y="227" width="9" height="9" transform="rotate(0,213.5,231.5)"/><rect x="209" y="245" width="9" height="9" transform="rotate(0,213.5,249.5)"/><rect x="209" y="254" width="9" height="9" transform="rotate(0,213.5,258.5)"/><rect x="209" y="263" width="9" height="9" transform="rotate(0,213.5,267.5)"/><rect x="209" y="290" width="9" height="9" transform="rotate(0,213.5,294.5)"/><rect x="209" y="299" width="9" height="9" transform="rotate(0,213.5,303.5)"/><rect x="209" y="308" width="9" height="9" transform="rotate(0,213.5,312.5)"/><rect x="209" y="335" width="9" height="9" transform="rotate(0,213.5,339.5)"/><rect x="209" y="344" width="9" height="9" transform="rotate(0,213.5,348.5)"/><rect x="209" y="353" width="9" height="9" transform="rotate(0,213.5,357.5)"/><rect x="209" y="362" width="9" height="9" transform="rotate(0,213.5,366.5)"/><rect x="209" y="371" width="9" height="9" transform="rotate(0,213.5,375.5)"/><rect x="209" y="389" width="9" height="9" transform="rotate(0,213.5,393.5)"/><rect x="209" y="407" width="9" height="9" transform="rotate(0,213.5,411.5)"/><rect x="209" y="416" width="9" height="9" transform="rotate(0,213.5,420.5)"/><rect x="209" y="443" width="9" height="9" transform="rotate(0,213.5,447.5)"/><rect x="209" y="452" width="9" height="9" transform="rotate(0,213.5,456.5)"/><rect x="218" y="38" width="9" height="9" transform="rotate(0,222.5,42.5)"/><rect x="218" y="47" width="9" height="9" transform="rotate(0,222.5,51.5)"/><rect x="218" y="56" width="9" height="9" transform="rotate(0,222.5,60.5)"/><rect x="218" y="65" width="9" height="9" transform="rotate(0,222.5,69.5)"/><rect x="218" y="74" width="9" height="9" transform="rotate(0,222.5,78.5)"/><rect x="218" y="92" width="9" height="9" transform="rotate(0,222.5,96.5)"/><rect x="218" y="101" width="9" height="9" transform="rotate(0,222.5,105.5)"/><rect x="218" y="146" width="9" height="9" transform="rotate(0,222.5,150.5)"/><rect x="218" y="155" width="9" height="9" transform="rotate(0,222.5,159.5)"/><rect x="218" y="182" width="9" height="9" transform="rotate(0,222.5,186.5)"/><rect x="218" y="227" width="9" height="9" transform="rotate(0,222.5,231.5)"/><rect x="218" y="290" width="9" height="9" transform="rotate(0,222.5,294.5)"/><rect x="218" y="299" width="9" height="9" transform="rotate(0,222.5,303.5)"/><rect x="218" y="308" width="9" height="9" transform="rotate(0,222.5,312.5)"/><rect x="218" y="326" width="9" height="9" transform="rotate(0,222.5,330.5)"/><rect x="218" y="398" width="9" height="9" transform="rotate(0,222.5,402.5)"/><rect x="218" y="407" width="9" height="9" transform="rotate(0,222.5,411.5)"/><rect x="227" y="29" width="9" height="9" transform="rotate(0,231.5,33.5)"/><rect x="227" y="38" width="9" height="9" transform="rotate(0,231.5,42.5)"/><rect x="227" y="47" width="9" height="9" transform="rotate(0,231.5,51.5)"/><rect x="227" y="65" width="9" height="9" transform="rotate(0,231.5,69.5)"/><rect x="227" y="74" width="9" height="9" transform="rotate(0,231.5,78.5)"/><rect x="227" y="83" width="9" height="9" transform="rotate(0,231.5,87.5)"/><rect x="227" y="92" width="9" height="9" transform="rotate(0,231.5,96.5)"/><rect x="227" y="101" width="9" height="9" transform="rotate(0,231.5,105.5)"/><rect x="227" y="110" width="9" height="9" transform="rotate(0,231.5,114.5)"/><rect x="227" y="128" width="9" height="9" transform="rotate(0,231.5,132.5)"/><rect x="227" y="137" width="9" height="9" transform="rotate(0,231.5,141.5)"/><rect x="227" y="173" width="9" height="9" transform="rotate(0,231.5,177.5)"/><rect x="227" y="200" width="9" height="9" transform="rotate(0,231.5,204.5)"/><rect x="227" y="209" width="9" height="9" transform="rotate(0,231.5,213.5)"/><rect x="227" y="218" width="9" height="9" transform="rotate(0,231.5,222.5)"/><rect x="227" y="227" width="9" height="9" transform="rotate(0,231.5,231.5)"/><rect x="227" y="236" width="9" height="9" transform="rotate(0,231.5,240.5)"/><rect x="227" y="245" width="9" height="9" transform="rotate(0,231.5,249.5)"/><rect x="227" y="254" width="9" height="9" transform="rotate(0,231.5,258.5)"/><rect x="227" y="263" width="9" height="9" transform="rotate(0,231.5,267.5)"/><rect x="227" y="281" width="9" height="9" transform="rotate(0,231.5,285.5)"/><rect x="227" y="326" width="9" height="9" transform="rotate(0,231.5,330.5)"/><rect x="227" y="335" width="9" height="9" transform="rotate(0,231.5,339.5)"/><rect x="227" y="353" width="9" height="9" transform="rotate(0,231.5,357.5)"/><rect x="227" y="371" width="9" height="9" transform="rotate(0,231.5,375.5)"/><rect x="227" y="389" width="9" height="9" transform="rotate(0,231.5,393.5)"/><rect x="227" y="398" width="9" height="9" transform="rotate(0,231.5,402.5)"/><rect x="227" y="407" width="9" height="9" transform="rotate(0,231.5,411.5)"/><rect x="227" y="416" width="9" height="9" transform="rotate(0,231.5,420.5)"/><rect x="227" y="425" width="9" height="9" transform="rotate(0,231.5,429.5)"/><rect x="227" y="434" width="9" height="9" transform="rotate(0,231.5,438.5)"/><rect x="227" y="452" width="9" height="9" transform="rotate(0,231.5,456.5)"/><rect x="227" y="461" width="9" height="9" transform="rotate(0,231.5,465.5)"/><rect x="236" y="38" width="9" height="9" transform="rotate(0,240.5,42.5)"/><rect x="236" y="65" width="9" height="9" transform="rotate(0,240.5,69.5)"/><rect x="236" y="101" width="9" height="9" transform="rotate(0,240.5,105.5)"/><rect x="236" y="110" width="9" height="9" transform="rotate(0,240.5,114.5)"/><rect x="236" y="128" width="9" height="9" transform="rotate(0,240.5,132.5)"/><rect x="236" y="146" width="9" height="9" transform="rotate(0,240.5,150.5)"/><rect x="236" y="173" width="9" height="9" transform="rotate(0,240.5,177.5)"/><rect x="236" y="191" width="9" height="9" transform="rotate(0,240.5,195.5)"/><rect x="236" y="200" width="9" height="9" transform="rotate(0,240.5,204.5)"/><rect x="236" y="227" width="9" height="9" transform="rotate(0,240.5,231.5)"/><rect x="236" y="263" width="9" height="9" transform="rotate(0,240.5,267.5)"/><rect x="236" y="272" width="9" height="9" transform="rotate(0,240.5,276.5)"/><rect x="236" y="290" width="9" height="9" transform="rotate(0,240.5,294.5)"/><rect x="236" y="299" width="9" height="9" transform="rotate(0,240.5,303.5)"/><rect x="236" y="308" width="9" height="9" transform="rotate(0,240.5,312.5)"/><rect x="236" y="317" width="9" height="9" transform="rotate(0,240.5,321.5)"/><rect x="236" y="335" width="9" height="9" transform="rotate(0,240.5,339.5)"/><rect x="236" y="362" width="9" height="9" transform="rotate(0,240.5,366.5)"/><rect x="236" y="371" width="9" height="9" transform="rotate(0,240.5,375.5)"/><rect x="236" y="380" width="9" height="9" transform="rotate(0,240.5,384.5)"/><rect x="236" y="389" width="9" height="9" transform="rotate(0,240.5,393.5)"/><rect x="236" y="425" width="9" height="9" transform="rotate(0,240.5,429.5)"/><rect x="236" y="452" width="9" height="9" transform="rotate(0,240.5,456.5)"/><rect x="236" y="461" width="9" height="9" transform="rotate(0,240.5,465.5)"/><rect x="245" y="38" width="9" height="9" transform="rotate(0,249.5,42.5)"/><rect x="245" y="47" width="9" height="9" transform="rotate(0,249.5,51.5)"/><rect x="245" y="56" width="9" height="9" transform="rotate(0,249.5,60.5)"/><rect x="245" y="65" width="9" height="9" transform="rotate(0,249.5,69.5)"/><rect x="245" y="83" width="9" height="9" transform="rotate(0,249.5,87.5)"/><rect x="245" y="101" width="9" height="9" transform="rotate(0,249.5,105.5)"/><rect x="245" y="119" width="9" height="9" transform="rotate(0,249.5,123.5)"/><rect x="245" y="128" width="9" height="9" transform="rotate(0,249.5,132.5)"/><rect x="245" y="137" width="9" height="9" transform="rotate(0,249.5,141.5)"/><rect x="245" y="146" width="9" height="9" transform="rotate(0,249.5,150.5)"/><rect x="245" y="155" width="9" height="9" transform="rotate(0,249.5,159.5)"/><rect x="245" y="164" width="9" height="9" transform="rotate(0,249.5,168.5)"/><rect x="245" y="173" width="9" height="9" transform="rotate(0,249.5,177.5)"/><rect x="245" y="209" width="9" height="9" transform="rotate(0,249.5,213.5)"/><rect x="245" y="227" width="9" height="9" transform="rotate(0,249.5,231.5)"/><rect x="245" y="245" width="9" height="9" transform="rotate(0,249.5,249.5)"/><rect x="245" y="263" width="9" height="9" transform="rotate(0,249.5,267.5)"/><rect x="245" y="281" width="9" height="9" transform="rotate(0,249.5,285.5)"/><rect x="245" y="299" width="9" height="9" transform="rotate(0,249.5,303.5)"/><rect x="245" y="308" width="9" height="9" transform="rotate(0,249.5,312.5)"/><rect x="245" y="335" width="9" height="9" transform="rotate(0,249.5,339.5)"/><rect x="245" y="344" width="9" height="9" transform="rotate(0,249.5,348.5)"/><rect x="245" y="353" width="9" height="9" transform="rotate(0,249.5,357.5)"/><rect x="245" y="371" width="9" height="9" transform="rotate(0,249.5,375.5)"/><rect x="245" y="380" width="9" height="9" transform="rotate(0,249.5,384.5)"/><rect x="245" y="389" width="9" height="9" transform="rotate(0,249.5,393.5)"/><rect x="245" y="407" width="9" height="9" transform="rotate(0,249.5,411.5)"/><rect x="245" y="425" width="9" height="9" transform="rotate(0,249.5,429.5)"/><rect x="245" y="434" width="9" height="9" transform="rotate(0,249.5,438.5)"/><rect x="245" y="443" width="9" height="9" transform="rotate(0,249.5,447.5)"/><rect x="245" y="452" width="9" height="9" transform="rotate(0,249.5,456.5)"/><rect x="245" y="461" width="9" height="9" transform="rotate(0,249.5,465.5)"/><rect x="254" y="29" width="9" height="9" transform="rotate(0,258.5,33.5)"/><rect x="254" y="47" width="9" height="9" transform="rotate(0,258.5,51.5)"/><rect x="254" y="65" width="9" height="9" transform="rotate(0,258.5,69.5)"/><rect x="254" y="101" width="9" height="9" transform="rotate(0,258.5,105.5)"/><rect x="254" y="128" width="9" height="9" transform="rotate(0,258.5,132.5)"/><rect x="254" y="137" width="9" height="9" transform="rotate(0,258.5,141.5)"/><rect x="254" y="164" width="9" height="9" transform="rotate(0,258.5,168.5)"/><rect x="254" y="182" width="9" height="9" transform="rotate(0,258.5,186.5)"/><rect x="254" y="191" width="9" height="9" transform="rotate(0,258.5,195.5)"/><rect x="254" y="200" width="9" height="9" transform="rotate(0,258.5,204.5)"/><rect x="254" y="209" width="9" height="9" transform="rotate(0,258.5,213.5)"/><rect x="254" y="227" width="9" height="9" transform="rotate(0,258.5,231.5)"/><rect x="254" y="263" width="9" height="9" transform="rotate(0,258.5,267.5)"/><rect x="254" y="272" width="9" height="9" transform="rotate(0,258.5,276.5)"/><rect x="254" y="281" width="9" height="9" transform="rotate(0,258.5,285.5)"/><rect x="254" y="290" width="9" height="9" transform="rotate(0,258.5,294.5)"/><rect x="254" y="299" width="9" height="9" transform="rotate(0,258.5,303.5)"/><rect x="254" y="308" width="9" height="9" transform="rotate(0,258.5,312.5)"/><rect x="254" y="362" width="9" height="9" transform="rotate(0,258.5,366.5)"/><rect x="254" y="389" width="9" height="9" transform="rotate(0,258.5,393.5)"/><rect x="254" y="425" width="9" height="9" transform="rotate(0,258.5,429.5)"/><rect x="254" y="434" width="9" height="9" transform="rotate(0,258.5,438.5)"/><rect x="263" y="29" width="9" height="9" transform="rotate(0,267.5,33.5)"/><rect x="263" y="47" width="9" height="9" transform="rotate(0,267.5,51.5)"/><rect x="263" y="56" width="9" height="9" transform="rotate(0,267.5,60.5)"/><rect x="263" y="65" width="9" height="9" transform="rotate(0,267.5,69.5)"/><rect x="263" y="74" width="9" height="9" transform="rotate(0,267.5,78.5)"/><rect x="263" y="83" width="9" height="9" transform="rotate(0,267.5,87.5)"/><rect x="263" y="92" width="9" height="9" transform="rotate(0,267.5,96.5)"/><rect x="263" y="101" width="9" height="9" transform="rotate(0,267.5,105.5)"/><rect x="263" y="110" width="9" height="9" transform="rotate(0,267.5,114.5)"/><rect x="263" y="146" width="9" height="9" transform="rotate(0,267.5,150.5)"/><rect x="263" y="155" width="9" height="9" transform="rotate(0,267.5,159.5)"/><rect x="263" y="164" width="9" height="9" transform="rotate(0,267.5,168.5)"/><rect x="263" y="173" width="9" height="9" transform="rotate(0,267.5,177.5)"/><rect x="263" y="200" width="9" height="9" transform="rotate(0,267.5,204.5)"/><rect x="263" y="209" width="9" height="9" transform="rotate(0,267.5,213.5)"/><rect x="263" y="227" width="9" height="9" transform="rotate(0,267.5,231.5)"/><rect x="263" y="236" width="9" height="9" transform="rotate(0,267.5,240.5)"/><rect x="263" y="245" width="9" height="9" transform="rotate(0,267.5,249.5)"/><rect x="263" y="254" width="9" height="9" transform="rotate(0,267.5,258.5)"/><rect x="263" y="263" width="9" height="9" transform="rotate(0,267.5,267.5)"/><rect x="263" y="281" width="9" height="9" transform="rotate(0,267.5,285.5)"/><rect x="263" y="308" width="9" height="9" transform="rotate(0,267.5,312.5)"/><rect x="263" y="326" width="9" height="9" transform="rotate(0,267.5,330.5)"/><rect x="263" y="335" width="9" height="9" transform="rotate(0,267.5,339.5)"/><rect x="263" y="353" width="9" height="9" transform="rotate(0,267.5,357.5)"/><rect x="263" y="371" width="9" height="9" transform="rotate(0,267.5,375.5)"/><rect x="263" y="380" width="9" height="9" transform="rotate(0,267.5,384.5)"/><rect x="263" y="389" width="9" height="9" transform="rotate(0,267.5,393.5)"/><rect x="263" y="398" width="9" height="9" transform="rotate(0,267.5,402.5)"/><rect x="263" y="407" width="9" height="9" transform="rotate(0,267.5,411.5)"/><rect x="263" y="416" width="9" height="9" transform="rotate(0,267.5,420.5)"/><rect x="263" y="425" width="9" height="9" transform="rotate(0,267.5,429.5)"/><rect x="263" y="443" width="9" height="9" transform="rotate(0,267.5,447.5)"/><rect x="263" y="461" width="9" height="9" transform="rotate(0,267.5,465.5)"/><rect x="272" y="38" width="9" height="9" transform="rotate(0,276.5,42.5)"/><rect x="272" y="56" width="9" height="9" transform="rotate(0,276.5,60.5)"/><rect x="272" y="65" width="9" height="9" transform="rotate(0,276.5,69.5)"/><rect x="272" y="74" width="9" height="9" transform="rotate(0,276.5,78.5)"/><rect x="272" y="92" width="9" height="9" transform="rotate(0,276.5,96.5)"/><rect x="272" y="110" width="9" height="9" transform="rotate(0,276.5,114.5)"/><rect x="272" y="137" width="9" height="9" transform="rotate(0,276.5,141.5)"/><rect x="272" y="155" width="9" height="9" transform="rotate(0,276.5,159.5)"/><rect x="272" y="164" width="9" height="9" transform="rotate(0,276.5,168.5)"/><rect x="272" y="182" width="9" height="9" transform="rotate(0,276.5,186.5)"/><rect x="272" y="191" width="9" height="9" transform="rotate(0,276.5,195.5)"/><rect x="272" y="218" width="9" height="9" transform="rotate(0,276.5,222.5)"/><rect x="272" y="254" width="9" height="9" transform="rotate(0,276.5,258.5)"/><rect x="272" y="272" width="9" height="9" transform="rotate(0,276.5,276.5)"/><rect x="272" y="281" width="9" height="9" transform="rotate(0,276.5,285.5)"/><rect x="272" y="299" width="9" height="9" transform="rotate(0,276.5,303.5)"/><rect x="272" y="308" width="9" height="9" transform="rotate(0,276.5,312.5)"/><rect x="272" y="317" width="9" height="9" transform="rotate(0,276.5,321.5)"/><rect x="272" y="344" width="9" height="9" transform="rotate(0,276.5,348.5)"/><rect x="272" y="362" width="9" height="9" transform="rotate(0,276.5,366.5)"/><rect x="272" y="371" width="9" height="9" transform="rotate(0,276.5,375.5)"/><rect x="272" y="398" width="9" height="9" transform="rotate(0,276.5,402.5)"/><rect x="272" y="416" width="9" height="9" transform="rotate(0,276.5,420.5)"/><rect x="272" y="452" width="9" height="9" transform="rotate(0,276.5,456.5)"/><rect x="272" y="461" width="9" height="9" transform="rotate(0,276.5,465.5)"/><rect x="281" y="38" width="9" height="9" transform="rotate(0,285.5,42.5)"/><rect x="281" y="47" width="9" height="9" transform="rotate(0,285.5,51.5)"/><rect x="281" y="83" width="9" height="9" transform="rotate(0,285.5,87.5)"/><rect x="281" y="101" width="9" height="9" transform="rotate(0,285.5,105.5)"/><rect x="281" y="128" width="9" height="9" transform="rotate(0,285.5,132.5)"/><rect x="281" y="182" width="9" height="9" transform="rotate(0,285.5,186.5)"/><rect x="281" y="191" width="9" height="9" transform="rotate(0,285.5,195.5)"/><rect x="281" y="209" width="9" height="9" transform="rotate(0,285.5,213.5)"/><rect x="281" y="218" width="9" height="9" transform="rotate(0,285.5,222.5)"/><rect x="281" y="227" width="9" height="9" transform="rotate(0,285.5,231.5)"/><rect x="281" y="236" width="9" height="9" transform="rotate(0,285.5,240.5)"/><rect x="281" y="254" width="9" height="9" transform="rotate(0,285.5,258.5)"/><rect x="281" y="263" width="9" height="9" transform="rotate(0,285.5,267.5)"/><rect x="281" y="290" width="9" height="9" transform="rotate(0,285.5,294.5)"/><rect x="281" y="308" width="9" height="9" transform="rotate(0,285.5,312.5)"/><rect x="281" y="335" width="9" height="9" transform="rotate(0,285.5,339.5)"/><rect x="281" y="344" width="9" height="9" transform="rotate(0,285.5,348.5)"/><rect x="281" y="353" width="9" height="9" transform="rotate(0,285.5,357.5)"/><rect x="281" y="362" width="9" height="9" transform="rotate(0,285.5,366.5)"/><rect x="281" y="371" width="9" height="9" transform="rotate(0,285.5,375.5)"/><rect x="281" y="380" width="9" height="9" transform="rotate(0,285.5,384.5)"/><rect x="281" y="407" width="9" height="9" transform="rotate(0,285.5,411.5)"/><rect x="281" y="416" width="9" height="9" transform="rotate(0,285.5,420.5)"/><rect x="281" y="425" width="9" height="9" transform="rotate(0,285.5,429.5)"/><rect x="281" y="434" width="9" height="9" transform="rotate(0,285.5,438.5)"/><rect x="281" y="443" width="9" height="9" transform="rotate(0,285.5,447.5)"/><rect x="281" y="461" width="9" height="9" transform="rotate(0,285.5,465.5)"/><rect x="290" y="38" width="9" height="9" transform="rotate(0,294.5,42.5)"/><rect x="290" y="47" width="9" height="9" transform="rotate(0,294.5,51.5)"/><rect x="290" y="65" width="9" height="9" transform="rotate(0,294.5,69.5)"/><rect x="290" y="101" width="9" height="9" transform="rotate(0,294.5,105.5)"/><rect x="290" y="110" width="9" height="9" transform="rotate(0,294.5,114.5)"/><rect x="290" y="128" width="9" height="9" transform="rotate(0,294.5,132.5)"/><rect x="290" y="137" width="9" height="9" transform="rotate(0,294.5,141.5)"/><rect x="290" y="146" width="9" height="9" transform="rotate(0,294.5,150.5)"/><rect x="290" y="155" width="9" height="9" transform="rotate(0,294.5,159.5)"/><rect x="290" y="164" width="9" height="9" transform="rotate(0,294.5,168.5)"/><rect x="290" y="173" width="9" height="9" transform="rotate(0,294.5,177.5)"/><rect x="290" y="182" width="9" height="9" transform="rotate(0,294.5,186.5)"/><rect x="290" y="200" width="9" height="9" transform="rotate(0,294.5,204.5)"/><rect x="290" y="209" width="9" height="9" transform="rotate(0,294.5,213.5)"/><rect x="290" y="227" width="9" height="9" transform="rotate(0,294.5,231.5)"/><rect x="290" y="245" width="9" height="9" transform="rotate(0,294.5,249.5)"/><rect x="290" y="254" width="9" height="9" transform="rotate(0,294.5,258.5)"/><rect x="290" y="263" width="9" height="9" transform="rotate(0,294.5,267.5)"/><rect x="290" y="272" width="9" height="9" transform="rotate(0,294.5,276.5)"/><rect x="290" y="290" width="9" height="9" transform="rotate(0,294.5,294.5)"/><rect x="290" y="299" width="9" height="9" transform="rotate(0,294.5,303.5)"/><rect x="290" y="317" width="9" height="9" transform="rotate(0,294.5,321.5)"/><rect x="290" y="344" width="9" height="9" transform="rotate(0,294.5,348.5)"/><rect x="290" y="362" width="9" height="9" transform="rotate(0,294.5,366.5)"/><rect x="290" y="398" width="9" height="9" transform="rotate(0,294.5,402.5)"/><rect x="290" y="407" width="9" height="9" transform="rotate(0,294.5,411.5)"/><rect x="290" y="416" width="9" height="9" transform="rotate(0,294.5,420.5)"/><rect x="290" y="434" width="9" height="9" transform="rotate(0,294.5,438.5)"/><rect x="299" y="56" width="9" height="9" transform="rotate(0,303.5,60.5)"/><rect x="299" y="83" width="9" height="9" transform="rotate(0,303.5,87.5)"/><rect x="299" y="137" width="9" height="9" transform="rotate(0,303.5,141.5)"/><rect x="299" y="146" width="9" height="9" transform="rotate(0,303.5,150.5)"/><rect x="299" y="155" width="9" height="9" transform="rotate(0,303.5,159.5)"/><rect x="299" y="173" width="9" height="9" transform="rotate(0,303.5,177.5)"/><rect x="299" y="191" width="9" height="9" transform="rotate(0,303.5,195.5)"/><rect x="299" y="227" width="9" height="9" transform="rotate(0,303.5,231.5)"/><rect x="299" y="308" width="9" height="9" transform="rotate(0,303.5,312.5)"/><rect x="299" y="335" width="9" height="9" transform="rotate(0,303.5,339.5)"/><rect x="299" y="344" width="9" height="9" transform="rotate(0,303.5,348.5)"/><rect x="299" y="353" width="9" height="9" transform="rotate(0,303.5,357.5)"/><rect x="299" y="362" width="9" height="9" transform="rotate(0,303.5,366.5)"/><rect x="299" y="380" width="9" height="9" transform="rotate(0,303.5,384.5)"/><rect x="299" y="398" width="9" height="9" transform="rotate(0,303.5,402.5)"/><rect x="299" y="407" width="9" height="9" transform="rotate(0,303.5,411.5)"/><rect x="299" y="443" width="9" height="9" transform="rotate(0,303.5,447.5)"/><rect x="299" y="452" width="9" height="9" transform="rotate(0,303.5,456.5)"/><rect x="299" y="461" width="9" height="9" transform="rotate(0,303.5,465.5)"/><rect x="308" y="29" width="9" height="9" transform="rotate(0,312.5,33.5)"/><rect x="308" y="38" width="9" height="9" transform="rotate(0,312.5,42.5)"/><rect x="308" y="56" width="9" height="9" transform="rotate(0,312.5,60.5)"/><rect x="308" y="74" width="9" height="9" transform="rotate(0,312.5,78.5)"/><rect x="308" y="101" width="9" height="9" transform="rotate(0,312.5,105.5)"/><rect x="308" y="119" width="9" height="9" transform="rotate(0,312.5,123.5)"/><rect x="308" y="155" width="9" height="9" transform="rotate(0,312.5,159.5)"/><rect x="308" y="173" width="9" height="9" transform="rotate(0,312.5,177.5)"/><rect x="308" y="200" width="9" height="9" transform="rotate(0,312.5,204.5)"/><rect x="308" y="209" width="9" height="9" transform="rotate(0,312.5,213.5)"/><rect x="308" y="218" width="9" height="9" transform="rotate(0,312.5,222.5)"/><rect x="308" y="227" width="9" height="9" transform="rotate(0,312.5,231.5)"/><rect x="308" y="245" width="9" height="9" transform="rotate(0,312.5,249.5)"/><rect x="308" y="263" width="9" height="9" transform="rotate(0,312.5,267.5)"/><rect x="308" y="299" width="9" height="9" transform="rotate(0,312.5,303.5)"/><rect x="308" y="308" width="9" height="9" transform="rotate(0,312.5,312.5)"/><rect x="308" y="326" width="9" height="9" transform="rotate(0,312.5,330.5)"/><rect x="308" y="371" width="9" height="9" transform="rotate(0,312.5,375.5)"/><rect x="308" y="389" width="9" height="9" transform="rotate(0,312.5,393.5)"/><rect x="308" y="416" width="9" height="9" transform="rotate(0,312.5,420.5)"/><rect x="308" y="452" width="9" height="9" transform="rotate(0,312.5,456.5)"/><rect x="308" y="461" width="9" height="9" transform="rotate(0,312.5,465.5)"/><rect x="317" y="38" width="9" height="9" transform="rotate(0,321.5,42.5)"/><rect x="317" y="56" width="9" height="9" transform="rotate(0,321.5,60.5)"/><rect x="317" y="83" width="9" height="9" transform="rotate(0,321.5,87.5)"/><rect x="317" y="128" width="9" height="9" transform="rotate(0,321.5,132.5)"/><rect x="317" y="146" width="9" height="9" transform="rotate(0,321.5,150.5)"/><rect x="317" y="155" width="9" height="9" transform="rotate(0,321.5,159.5)"/><rect x="317" y="164" width="9" height="9" transform="rotate(0,321.5,168.5)"/><rect x="317" y="218" width="9" height="9" transform="rotate(0,321.5,222.5)"/><rect x="317" y="236" width="9" height="9" transform="rotate(0,321.5,240.5)"/><rect x="317" y="245" width="9" height="9" transform="rotate(0,321.5,249.5)"/><rect x="317" y="254" width="9" height="9" transform="rotate(0,321.5,258.5)"/><rect x="317" y="272" width="9" height="9" transform="rotate(0,321.5,276.5)"/><rect x="317" y="299" width="9" height="9" transform="rotate(0,321.5,303.5)"/><rect x="317" y="335" width="9" height="9" transform="rotate(0,321.5,339.5)"/><rect x="317" y="344" width="9" height="9" transform="rotate(0,321.5,348.5)"/><rect x="317" y="353" width="9" height="9" transform="rotate(0,321.5,357.5)"/><rect x="317" y="371" width="9" height="9" transform="rotate(0,321.5,375.5)"/><rect x="317" y="380" width="9" height="9" transform="rotate(0,321.5,384.5)"/><rect x="317" y="389" width="9" height="9" transform="rotate(0,321.5,393.5)"/><rect x="317" y="425" width="9" height="9" transform="rotate(0,321.5,429.5)"/><rect x="317" y="443" width="9" height="9" transform="rotate(0,321.5,447.5)"/><rect x="317" y="452" width="9" height="9" transform="rotate(0,321.5,456.5)"/><rect x="326" y="56" width="9" height="9" transform="rotate(0,330.5,60.5)"/><rect x="326" y="74" width="9" height="9" transform="rotate(0,330.5,78.5)"/><rect x="326" y="101" width="9" height="9" transform="rotate(0,330.5,105.5)"/><rect x="326" y="128" width="9" height="9" transform="rotate(0,330.5,132.5)"/><rect x="326" y="137" width="9" height="9" transform="rotate(0,330.5,141.5)"/><rect x="326" y="155" width="9" height="9" transform="rotate(0,330.5,159.5)"/><rect x="326" y="164" width="9" height="9" transform="rotate(0,330.5,168.5)"/><rect x="326" y="173" width="9" height="9" transform="rotate(0,330.5,177.5)"/><rect x="326" y="191" width="9" height="9" transform="rotate(0,330.5,195.5)"/><rect x="326" y="200" width="9" height="9" transform="rotate(0,330.5,204.5)"/><rect x="326" y="227" width="9" height="9" transform="rotate(0,330.5,231.5)"/><rect x="326" y="245" width="9" height="9" transform="rotate(0,330.5,249.5)"/><rect x="326" y="290" width="9" height="9" transform="rotate(0,330.5,294.5)"/><rect x="326" y="299" width="9" height="9" transform="rotate(0,330.5,303.5)"/><rect x="326" y="308" width="9" height="9" transform="rotate(0,330.5,312.5)"/><rect x="326" y="362" width="9" height="9" transform="rotate(0,330.5,366.5)"/><rect x="326" y="389" width="9" height="9" transform="rotate(0,330.5,393.5)"/><rect x="326" y="398" width="9" height="9" transform="rotate(0,330.5,402.5)"/><rect x="326" y="407" width="9" height="9" transform="rotate(0,330.5,411.5)"/><rect x="326" y="416" width="9" height="9" transform="rotate(0,330.5,420.5)"/><rect x="326" y="443" width="9" height="9" transform="rotate(0,330.5,447.5)"/><rect x="326" y="452" width="9" height="9" transform="rotate(0,330.5,456.5)"/><rect x="335" y="38" width="9" height="9" transform="rotate(0,339.5,42.5)"/><rect x="335" y="47" width="9" height="9" transform="rotate(0,339.5,51.5)"/><rect x="335" y="65" width="9" height="9" transform="rotate(0,339.5,69.5)"/><rect x="335" y="74" width="9" height="9" transform="rotate(0,339.5,78.5)"/><rect x="335" y="83" width="9" height="9" transform="rotate(0,339.5,87.5)"/><rect x="335" y="92" width="9" height="9" transform="rotate(0,339.5,96.5)"/><rect x="335" y="110" width="9" height="9" transform="rotate(0,339.5,114.5)"/><rect x="335" y="119" width="9" height="9" transform="rotate(0,339.5,123.5)"/><rect x="335" y="137" width="9" height="9" transform="rotate(0,339.5,141.5)"/><rect x="335" y="155" width="9" height="9" transform="rotate(0,339.5,159.5)"/><rect x="335" y="173" width="9" height="9" transform="rotate(0,339.5,177.5)"/><rect x="335" y="182" width="9" height="9" transform="rotate(0,339.5,186.5)"/><rect x="335" y="209" width="9" height="9" transform="rotate(0,339.5,213.5)"/><rect x="335" y="218" width="9" height="9" transform="rotate(0,339.5,222.5)"/><rect x="335" y="272" width="9" height="9" transform="rotate(0,339.5,276.5)"/><rect x="335" y="290" width="9" height="9" transform="rotate(0,339.5,294.5)"/><rect x="335" y="326" width="9" height="9" transform="rotate(0,339.5,330.5)"/><rect x="335" y="335" width="9" height="9" transform="rotate(0,339.5,339.5)"/><rect x="335" y="353" width="9" height="9" transform="rotate(0,339.5,357.5)"/><rect x="335" y="371" width="9" height="9" transform="rotate(0,339.5,375.5)"/><rect x="335" y="389" width="9" height="9" transform="rotate(0,339.5,393.5)"/><rect x="335" y="398" width="9" height="9" transform="rotate(0,339.5,402.5)"/><rect x="335" y="407" width="9" height="9" transform="rotate(0,339.5,411.5)"/><rect x="335" y="416" width="9" height="9" transform="rotate(0,339.5,420.5)"/><rect x="335" y="425" width="9" height="9" transform="rotate(0,339.5,429.5)"/><rect x="335" y="434" width="9" height="9" transform="rotate(0,339.5,438.5)"/><rect x="335" y="452" width="9" height="9" transform="rotate(0,339.5,456.5)"/><rect x="335" y="461" width="9" height="9" transform="rotate(0,339.5,465.5)"/><rect x="344" y="29" width="9" height="9" transform="rotate(0,348.5,33.5)"/><rect x="344" y="38" width="9" height="9" transform="rotate(0,348.5,42.5)"/><rect x="344" y="47" width="9" height="9" transform="rotate(0,348.5,51.5)"/><rect x="344" y="56" width="9" height="9" transform="rotate(0,348.5,60.5)"/><rect x="344" y="92" width="9" height="9" transform="rotate(0,348.5,96.5)"/><rect x="344" y="101" width="9" height="9" transform="rotate(0,348.5,105.5)"/><rect x="344" y="137" width="9" height="9" transform="rotate(0,348.5,141.5)"/><rect x="344" y="155" width="9" height="9" transform="rotate(0,348.5,159.5)"/><rect x="344" y="164" width="9" height="9" transform="rotate(0,348.5,168.5)"/><rect x="344" y="173" width="9" height="9" transform="rotate(0,348.5,177.5)"/><rect x="344" y="182" width="9" height="9" transform="rotate(0,348.5,186.5)"/><rect x="344" y="191" width="9" height="9" transform="rotate(0,348.5,195.5)"/><rect x="344" y="200" width="9" height="9" transform="rotate(0,348.5,204.5)"/><rect x="344" y="209" width="9" height="9" transform="rotate(0,348.5,213.5)"/><rect x="344" y="218" width="9" height="9" transform="rotate(0,348.5,222.5)"/><rect x="344" y="227" width="9" height="9" transform="rotate(0,348.5,231.5)"/><rect x="344" y="236" width="9" height="9" transform="rotate(0,348.5,240.5)"/><rect x="344" y="245" width="9" height="9" transform="rotate(0,348.5,249.5)"/><rect x="344" y="263" width="9" height="9" transform="rotate(0,348.5,267.5)"/><rect x="344" y="281" width="9" height="9" transform="rotate(0,348.5,285.5)"/><rect x="344" y="290" width="9" height="9" transform="rotate(0,348.5,294.5)"/><rect x="344" y="299" width="9" height="9" transform="rotate(0,348.5,303.5)"/><rect x="344" y="317" width="9" height="9" transform="rotate(0,348.5,321.5)"/><rect x="344" y="326" width="9" height="9" transform="rotate(0,348.5,330.5)"/><rect x="344" y="344" width="9" height="9" transform="rotate(0,348.5,348.5)"/><rect x="344" y="371" width="9" height="9" transform="rotate(0,348.5,375.5)"/><rect x="344" y="389" width="9" height="9" transform="rotate(0,348.5,393.5)"/><rect x="344" y="416" width="9" height="9" transform="rotate(0,348.5,420.5)"/><rect x="344" y="461" width="9" height="9" transform="rotate(0,348.5,465.5)"/><rect x="353" y="29" width="9" height="9" transform="rotate(0,357.5,33.5)"/><rect x="353" y="38" width="9" height="9" transform="rotate(0,357.5,42.5)"/><rect x="353" y="83" width="9" height="9" transform="rotate(0,357.5,87.5)"/><rect x="353" y="92" width="9" height="9" transform="rotate(0,357.5,96.5)"/><rect x="353" y="101" width="9" height="9" transform="rotate(0,357.5,105.5)"/><rect x="353" y="110" width="9" height="9" transform="rotate(0,357.5,114.5)"/><rect x="353" y="128" width="9" height="9" transform="rotate(0,357.5,132.5)"/><rect x="353" y="164" width="9" height="9" transform="rotate(0,357.5,168.5)"/><rect x="353" y="173" width="9" height="9" transform="rotate(0,357.5,177.5)"/><rect x="353" y="191" width="9" height="9" transform="rotate(0,357.5,195.5)"/><rect x="353" y="200" width="9" height="9" transform="rotate(0,357.5,204.5)"/><rect x="353" y="209" width="9" height="9" transform="rotate(0,357.5,213.5)"/><rect x="353" y="218" width="9" height="9" transform="rotate(0,357.5,222.5)"/><rect x="353" y="236" width="9" height="9" transform="rotate(0,357.5,240.5)"/><rect x="353" y="245" width="9" height="9" transform="rotate(0,357.5,249.5)"/><rect x="353" y="254" width="9" height="9" transform="rotate(0,357.5,258.5)"/><rect x="353" y="299" width="9" height="9" transform="rotate(0,357.5,303.5)"/><rect x="353" y="308" width="9" height="9" transform="rotate(0,357.5,312.5)"/><rect x="353" y="344" width="9" height="9" transform="rotate(0,357.5,348.5)"/><rect x="353" y="353" width="9" height="9" transform="rotate(0,357.5,357.5)"/><rect x="353" y="380" width="9" height="9" transform="rotate(0,357.5,384.5)"/><rect x="353" y="389" width="9" height="9" transform="rotate(0,357.5,393.5)"/><rect x="353" y="398" width="9" height="9" transform="rotate(0,357.5,402.5)"/><rect x="353" y="407" width="9" height="9" transform="rotate(0,357.5,411.5)"/><rect x="353" y="425" width="9" height="9" transform="rotate(0,357.5,429.5)"/><rect x="353" y="434" width="9" height="9" transform="rotate(0,357.5,438.5)"/><rect x="353" y="443" width="9" height="9" transform="rotate(0,357.5,447.5)"/><rect x="353" y="452" width="9" height="9" transform="rotate(0,357.5,456.5)"/><rect x="353" y="461" width="9" height="9" transform="rotate(0,357.5,465.5)"/><rect x="362" y="29" width="9" height="9" transform="rotate(0,366.5,33.5)"/><rect x="362" y="38" width="9" height="9" transform="rotate(0,366.5,42.5)"/><rect x="362" y="65" width="9" height="9" transform="rotate(0,366.5,69.5)"/><rect x="362" y="74" width="9" height="9" transform="rotate(0,366.5,78.5)"/><rect x="362" y="110" width="9" height="9" transform="rotate(0,366.5,114.5)"/><rect x="362" y="119" width="9" height="9" transform="rotate(0,366.5,123.5)"/><rect x="362" y="137" width="9" height="9" transform="rotate(0,366.5,141.5)"/><rect x="362" y="146" width="9" height="9" transform="rotate(0,366.5,150.5)"/><rect x="362" y="164" width="9" height="9" transform="rotate(0,366.5,168.5)"/><rect x="362" y="173" width="9" height="9" transform="rotate(0,366.5,177.5)"/><rect x="362" y="182" width="9" height="9" transform="rotate(0,366.5,186.5)"/><rect x="362" y="218" width="9" height="9" transform="rotate(0,366.5,222.5)"/><rect x="362" y="236" width="9" height="9" transform="rotate(0,366.5,240.5)"/><rect x="362" y="245" width="9" height="9" transform="rotate(0,366.5,249.5)"/><rect x="362" y="254" width="9" height="9" transform="rotate(0,366.5,258.5)"/><rect x="362" y="263" width="9" height="9" transform="rotate(0,366.5,267.5)"/><rect x="362" y="290" width="9" height="9" transform="rotate(0,366.5,294.5)"/><rect x="362" y="299" width="9" height="9" transform="rotate(0,366.5,303.5)"/><rect x="362" y="317" width="9" height="9" transform="rotate(0,366.5,321.5)"/><rect x="362" y="344" width="9" height="9" transform="rotate(0,366.5,348.5)"/><rect x="362" y="353" width="9" height="9" transform="rotate(0,366.5,357.5)"/><rect x="362" y="362" width="9" height="9" transform="rotate(0,366.5,366.5)"/><rect x="362" y="380" width="9" height="9" transform="rotate(0,366.5,384.5)"/><rect x="362" y="389" width="9" height="9" transform="rotate(0,366.5,393.5)"/><rect x="362" y="398" width="9" height="9" transform="rotate(0,366.5,402.5)"/><rect x="362" y="407" width="9" height="9" transform="rotate(0,366.5,411.5)"/><rect x="362" y="416" width="9" height="9" transform="rotate(0,366.5,420.5)"/><rect x="362" y="434" width="9" height="9" transform="rotate(0,366.5,438.5)"/><rect x="371" y="38" width="9" height="9" transform="rotate(0,375.5,42.5)"/><rect x="371" y="74" width="9" height="9" transform="rotate(0,375.5,78.5)"/><rect x="371" y="83" width="9" height="9" transform="rotate(0,375.5,87.5)"/><rect x="371" y="92" width="9" height="9" transform="rotate(0,375.5,96.5)"/><rect x="371" y="101" width="9" height="9" transform="rotate(0,375.5,105.5)"/><rect x="371" y="128" width="9" height="9" transform="rotate(0,375.5,132.5)"/><rect x="371" y="137" width="9" height="9" transform="rotate(0,375.5,141.5)"/><rect x="371" y="146" width="9" height="9" transform="rotate(0,375.5,150.5)"/><rect x="371" y="164" width="9" height="9" transform="rotate(0,375.5,168.5)"/><rect x="371" y="173" width="9" height="9" transform="rotate(0,375.5,177.5)"/><rect x="371" y="191" width="9" height="9" transform="rotate(0,375.5,195.5)"/><rect x="371" y="200" width="9" height="9" transform="rotate(0,375.5,204.5)"/><rect x="371" y="227" width="9" height="9" transform="rotate(0,375.5,231.5)"/><rect x="371" y="236" width="9" height="9" transform="rotate(0,375.5,240.5)"/><rect x="371" y="272" width="9" height="9" transform="rotate(0,375.5,276.5)"/><rect x="371" y="308" width="9" height="9" transform="rotate(0,375.5,312.5)"/><rect x="371" y="317" width="9" height="9" transform="rotate(0,375.5,321.5)"/><rect x="371" y="326" width="9" height="9" transform="rotate(0,375.5,330.5)"/><rect x="371" y="335" width="9" height="9" transform="rotate(0,375.5,339.5)"/><rect x="371" y="344" width="9" height="9" transform="rotate(0,375.5,348.5)"/><rect x="371" y="371" width="9" height="9" transform="rotate(0,375.5,375.5)"/><rect x="371" y="389" width="9" height="9" transform="rotate(0,375.5,393.5)"/><rect x="371" y="398" width="9" height="9" transform="rotate(0,375.5,402.5)"/><rect x="371" y="407" width="9" height="9" transform="rotate(0,375.5,411.5)"/><rect x="371" y="416" width="9" height="9" transform="rotate(0,375.5,420.5)"/><rect x="371" y="443" width="9" height="9" transform="rotate(0,375.5,447.5)"/><rect x="371" y="452" width="9" height="9" transform="rotate(0,375.5,456.5)"/><rect x="371" y="461" width="9" height="9" transform="rotate(0,375.5,465.5)"/><rect x="380" y="38" width="9" height="9" transform="rotate(0,384.5,42.5)"/><rect x="380" y="47" width="9" height="9" transform="rotate(0,384.5,51.5)"/><rect x="380" y="56" width="9" height="9" transform="rotate(0,384.5,60.5)"/><rect x="380" y="101" width="9" height="9" transform="rotate(0,384.5,105.5)"/><rect x="380" y="110" width="9" height="9" transform="rotate(0,384.5,114.5)"/><rect x="380" y="128" width="9" height="9" transform="rotate(0,384.5,132.5)"/><rect x="380" y="137" width="9" height="9" transform="rotate(0,384.5,141.5)"/><rect x="380" y="155" width="9" height="9" transform="rotate(0,384.5,159.5)"/><rect x="380" y="182" width="9" height="9" transform="rotate(0,384.5,186.5)"/><rect x="380" y="200" width="9" height="9" transform="rotate(0,384.5,204.5)"/><rect x="380" y="209" width="9" height="9" transform="rotate(0,384.5,213.5)"/><rect x="380" y="236" width="9" height="9" transform="rotate(0,384.5,240.5)"/><rect x="380" y="245" width="9" height="9" transform="rotate(0,384.5,249.5)"/><rect x="380" y="263" width="9" height="9" transform="rotate(0,384.5,267.5)"/><rect x="380" y="272" width="9" height="9" transform="rotate(0,384.5,276.5)"/><rect x="380" y="281" width="9" height="9" transform="rotate(0,384.5,285.5)"/><rect x="380" y="290" width="9" height="9" transform="rotate(0,384.5,294.5)"/><rect x="380" y="308" width="9" height="9" transform="rotate(0,384.5,312.5)"/><rect x="380" y="317" width="9" height="9" transform="rotate(0,384.5,321.5)"/><rect x="380" y="335" width="9" height="9" transform="rotate(0,384.5,339.5)"/><rect x="380" y="344" width="9" height="9" transform="rotate(0,384.5,348.5)"/><rect x="380" y="362" width="9" height="9" transform="rotate(0,384.5,366.5)"/><rect x="380" y="398" width="9" height="9" transform="rotate(0,384.5,402.5)"/><rect x="380" y="416" width="9" height="9" transform="rotate(0,384.5,420.5)"/><rect x="389" y="29" width="9" height="9" transform="rotate(0,393.5,33.5)"/><rect x="389" y="38" width="9" height="9" transform="rotate(0,393.5,42.5)"/><rect x="389" y="47" width="9" height="9" transform="rotate(0,393.5,51.5)"/><rect x="389" y="83" width="9" height="9" transform="rotate(0,393.5,87.5)"/><rect x="389" y="92" width="9" height="9" transform="rotate(0,393.5,96.5)"/><rect x="389" y="110" width="9" height="9" transform="rotate(0,393.5,114.5)"/><rect x="389" y="155" width="9" height="9" transform="rotate(0,393.5,159.5)"/><rect x="389" y="173" width="9" height="9" transform="rotate(0,393.5,177.5)"/><rect x="389" y="200" width="9" height="9" transform="rotate(0,393.5,204.5)"/><rect x="389" y="227" width="9" height="9" transform="rotate(0,393.5,231.5)"/><rect x="389" y="236" width="9" height="9" transform="rotate(0,393.5,240.5)"/><rect x="389" y="245" width="9" height="9" transform="rotate(0,393.5,249.5)"/><rect x="389" y="254" width="9" height="9" transform="rotate(0,393.5,258.5)"/><rect x="389" y="263" width="9" height="9" transform="rotate(0,393.5,267.5)"/><rect x="389" y="272" width="9" height="9" transform="rotate(0,393.5,276.5)"/><rect x="389" y="308" width="9" height="9" transform="rotate(0,393.5,312.5)"/><rect x="389" y="326" width="9" height="9" transform="rotate(0,393.5,330.5)"/><rect x="389" y="335" width="9" height="9" transform="rotate(0,393.5,339.5)"/><rect x="389" y="344" width="9" height="9" transform="rotate(0,393.5,348.5)"/><rect x="389" y="353" width="9" height="9" transform="rotate(0,393.5,357.5)"/><rect x="389" y="362" width="9" height="9" transform="rotate(0,393.5,366.5)"/><rect x="389" y="380" width="9" height="9" transform="rotate(0,393.5,384.5)"/><rect x="389" y="389" width="9" height="9" transform="rotate(0,393.5,393.5)"/><rect x="389" y="398" width="9" height="9" transform="rotate(0,393.5,402.5)"/><rect x="389" y="407" width="9" height="9" transform="rotate(0,393.5,411.5)"/><rect x="389" y="416" width="9" height="9" transform="rotate(0,393.5,420.5)"/><rect x="389" y="425" width="9" height="9" transform="rotate(0,393.5,429.5)"/><rect x="389" y="443" width="9" height="9" transform="rotate(0,393.5,447.5)"/><rect x="389" y="452" width="9" height="9" transform="rotate(0,393.5,456.5)"/><rect x="389" y="461" width="9" height="9" transform="rotate(0,393.5,465.5)"/><rect x="398" y="101" width="9" height="9" transform="rotate(0,402.5,105.5)"/><rect x="398" y="119" width="9" height="9" transform="rotate(0,402.5,123.5)"/><rect x="398" y="164" width="9" height="9" transform="rotate(0,402.5,168.5)"/><rect x="398" y="173" width="9" height="9" transform="rotate(0,402.5,177.5)"/><rect x="398" y="200" width="9" height="9" transform="rotate(0,402.5,204.5)"/><rect x="398" y="209" width="9" height="9" transform="rotate(0,402.5,213.5)"/><rect x="398" y="227" width="9" height="9" transform="rotate(0,402.5,231.5)"/><rect x="398" y="263" width="9" height="9" transform="rotate(0,402.5,267.5)"/><rect x="398" y="272" width="9" height="9" transform="rotate(0,402.5,276.5)"/><rect x="398" y="290" width="9" height="9" transform="rotate(0,402.5,294.5)"/><rect x="398" y="308" width="9" height="9" transform="rotate(0,402.5,312.5)"/><rect x="398" y="317" width="9" height="9" transform="rotate(0,402.5,321.5)"/><rect x="398" y="335" width="9" height="9" transform="rotate(0,402.5,339.5)"/><rect x="398" y="344" width="9" height="9" transform="rotate(0,402.5,348.5)"/><rect x="398" y="353" width="9" height="9" transform="rotate(0,402.5,357.5)"/><rect x="398" y="362" width="9" height="9" transform="rotate(0,402.5,366.5)"/><rect x="398" y="389" width="9" height="9" transform="rotate(0,402.5,393.5)"/><rect x="398" y="425" width="9" height="9" transform="rotate(0,402.5,429.5)"/><rect x="407" y="101" width="9" height="9" transform="rotate(0,411.5,105.5)"/><rect x="407" y="110" width="9" height="9" transform="rotate(0,411.5,114.5)"/><rect x="407" y="119" width="9" height="9" transform="rotate(0,411.5,123.5)"/><rect x="407" y="128" width="9" height="9" transform="rotate(0,411.5,132.5)"/><rect x="407" y="155" width="9" height="9" transform="rotate(0,411.5,159.5)"/><rect x="407" y="200" width="9" height="9" transform="rotate(0,411.5,204.5)"/><rect x="407" y="209" width="9" height="9" transform="rotate(0,411.5,213.5)"/><rect x="407" y="218" width="9" height="9" transform="rotate(0,411.5,222.5)"/><rect x="407" y="227" width="9" height="9" transform="rotate(0,411.5,231.5)"/><rect x="407" y="245" width="9" height="9" transform="rotate(0,411.5,249.5)"/><rect x="407" y="263" width="9" height="9" transform="rotate(0,411.5,267.5)"/><rect x="407" y="299" width="9" height="9" transform="rotate(0,411.5,303.5)"/><rect x="407" y="326" width="9" height="9" transform="rotate(0,411.5,330.5)"/><rect x="407" y="353" width="9" height="9" transform="rotate(0,411.5,357.5)"/><rect x="407" y="362" width="9" height="9" transform="rotate(0,411.5,366.5)"/><rect x="407" y="371" width="9" height="9" transform="rotate(0,411.5,375.5)"/><rect x="407" y="389" width="9" height="9" transform="rotate(0,411.5,393.5)"/><rect x="407" y="407" width="9" height="9" transform="rotate(0,411.5,411.5)"/><rect x="407" y="425" width="9" height="9" transform="rotate(0,411.5,429.5)"/><rect x="407" y="434" width="9" height="9" transform="rotate(0,411.5,438.5)"/><rect x="407" y="452" width="9" height="9" transform="rotate(0,411.5,456.5)"/><rect x="407" y="461" width="9" height="9" transform="rotate(0,411.5,465.5)"/><rect x="416" y="101" width="9" height="9" transform="rotate(0,420.5,105.5)"/><rect x="416" y="110" width="9" height="9" transform="rotate(0,420.5,114.5)"/><rect x="416" y="119" width="9" height="9" transform="rotate(0,420.5,123.5)"/><rect x="416" y="155" width="9" height="9" transform="rotate(0,420.5,159.5)"/><rect x="416" y="164" width="9" height="9" transform="rotate(0,420.5,168.5)"/><rect x="416" y="182" width="9" height="9" transform="rotate(0,420.5,186.5)"/><rect x="416" y="191" width="9" height="9" transform="rotate(0,420.5,195.5)"/><rect x="416" y="200" width="9" height="9" transform="rotate(0,420.5,204.5)"/><rect x="416" y="209" width="9" height="9" transform="rotate(0,420.5,213.5)"/><rect x="416" y="227" width="9" height="9" transform="rotate(0,420.5,231.5)"/><rect x="416" y="263" width="9" height="9" transform="rotate(0,420.5,267.5)"/><rect x="416" y="272" width="9" height="9" transform="rotate(0,420.5,276.5)"/><rect x="416" y="290" width="9" height="9" transform="rotate(0,420.5,294.5)"/><rect x="416" y="299" width="9" height="9" transform="rotate(0,420.5,303.5)"/><rect x="416" y="317" width="9" height="9" transform="rotate(0,420.5,321.5)"/><rect x="416" y="335" width="9" height="9" transform="rotate(0,420.5,339.5)"/><rect x="416" y="344" width="9" height="9" transform="rotate(0,420.5,348.5)"/><rect x="416" y="362" width="9" height="9" transform="rotate(0,420.5,366.5)"/><rect x="416" y="371" width="9" height="9" transform="rotate(0,420.5,375.5)"/><rect x="416" y="380" width="9" height="9" transform="rotate(0,420.5,384.5)"/><rect x="416" y="389" width="9" height="9" transform="rotate(0,420.5,393.5)"/><rect x="416" y="425" width="9" height="9" transform="rotate(0,420.5,429.5)"/><rect x="416" y="452" width="9" height="9" transform="rotate(0,420.5,456.5)"/><rect x="425" y="101" width="9" height="9" transform="rotate(0,429.5,105.5)"/><rect x="425" y="119" width="9" height="9" transform="rotate(0,429.5,123.5)"/><rect x="425" y="173" width="9" height="9" transform="rotate(0,429.5,177.5)"/><rect x="425" y="182" width="9" height="9" transform="rotate(0,429.5,186.5)"/><rect x="425" y="200" width="9" height="9" transform="rotate(0,429.5,204.5)"/><rect x="425" y="209" width="9" height="9" transform="rotate(0,429.5,213.5)"/><rect x="425" y="227" width="9" height="9" transform="rotate(0,429.5,231.5)"/><rect x="425" y="236" width="9" height="9" transform="rotate(0,429.5,240.5)"/><rect x="425" y="245" width="9" height="9" transform="rotate(0,429.5,249.5)"/><rect x="425" y="254" width="9" height="9" transform="rotate(0,429.5,258.5)"/><rect x="425" y="263" width="9" height="9" transform="rotate(0,429.5,267.5)"/><rect x="425" y="290" width="9" height="9" transform="rotate(0,429.5,294.5)"/><rect x="425" y="299" width="9" height="9" transform="rotate(0,429.5,303.5)"/><rect x="425" y="308" width="9" height="9" transform="rotate(0,429.5,312.5)"/><rect x="425" y="326" width="9" height="9" transform="rotate(0,429.5,330.5)"/><rect x="425" y="335" width="9" height="9" transform="rotate(0,429.5,339.5)"/><rect x="425" y="344" width="9" height="9" transform="rotate(0,429.5,348.5)"/><rect x="425" y="353" width="9" height="9" transform="rotate(0,429.5,357.5)"/><rect x="425" y="362" width="9" height="9" transform="rotate(0,429.5,366.5)"/><rect x="425" y="371" width="9" height="9" transform="rotate(0,429.5,375.5)"/><rect x="425" y="380" width="9" height="9" transform="rotate(0,429.5,384.5)"/><rect x="425" y="389" width="9" height="9" transform="rotate(0,429.5,393.5)"/><rect x="425" y="398" width="9" height="9" transform="rotate(0,429.5,402.5)"/><rect x="425" y="407" width="9" height="9" transform="rotate(0,429.5,411.5)"/><rect x="425" y="416" width="9" height="9" transform="rotate(0,429.5,420.5)"/><rect x="425" y="425" width="9" height="9" transform="rotate(0,429.5,429.5)"/><rect x="425" y="443" width="9" height="9" transform="rotate(0,429.5,447.5)"/><rect x="425" y="461" width="9" height="9" transform="rotate(0,429.5,465.5)"/><rect x="434" y="101" width="9" height="9" transform="rotate(0,438.5,105.5)"/><rect x="434" y="128" width="9" height="9" transform="rotate(0,438.5,132.5)"/><rect x="434" y="146" width="9" height="9" transform="rotate(0,438.5,150.5)"/><rect x="434" y="164" width="9" height="9" transform="rotate(0,438.5,168.5)"/><rect x="434" y="191" width="9" height="9" transform="rotate(0,438.5,195.5)"/><rect x="434" y="209" width="9" height="9" transform="rotate(0,438.5,213.5)"/><rect x="434" y="227" width="9" height="9" transform="rotate(0,438.5,231.5)"/><rect x="434" y="254" width="9" height="9" transform="rotate(0,438.5,258.5)"/><rect x="434" y="290" width="9" height="9" transform="rotate(0,438.5,294.5)"/><rect x="434" y="299" width="9" height="9" transform="rotate(0,438.5,303.5)"/><rect x="434" y="317" width="9" height="9" transform="rotate(0,438.5,321.5)"/><rect x="434" y="353" width="9" height="9" transform="rotate(0,438.5,357.5)"/><rect x="434" y="362" width="9" height="9" transform="rotate(0,438.5,366.5)"/><rect x="434" y="380" width="9" height="9" transform="rotate(0,438.5,384.5)"/><rect x="434" y="389" width="9" height="9" transform="rotate(0,438.5,393.5)"/><rect x="434" y="407" width="9" height="9" transform="rotate(0,438.5,411.5)"/><rect x="434" y="416" width="9" height="9" transform="rotate(0,438.5,420.5)"/><rect x="434" y="425" width="9" height="9" transform="rotate(0,438.5,429.5)"/><rect x="443" y="101" width="9" height="9" transform="rotate(0,447.5,105.5)"/><rect x="443" y="110" width="9" height="9" transform="rotate(0,447.5,114.5)"/><rect x="443" y="128" width="9" height="9" transform="rotate(0,447.5,132.5)"/><rect x="443" y="137" width="9" height="9" transform="rotate(0,447.5,141.5)"/><rect x="443" y="155" width="9" height="9" transform="rotate(0,447.5,159.5)"/><rect x="443" y="182" width="9" height="9" transform="rotate(0,447.5,186.5)"/><rect x="443" y="191" width="9" height="9" transform="rotate(0,447.5,195.5)"/><rect x="443" y="200" width="9" height="9" transform="rotate(0,447.5,204.5)"/><rect x="443" y="209" width="9" height="9" transform="rotate(0,447.5,213.5)"/><rect x="443" y="254" width="9" height="9" transform="rotate(0,447.5,258.5)"/><rect x="443" y="272" width="9" height="9" transform="rotate(0,447.5,276.5)"/><rect x="443" y="281" width="9" height="9" transform="rotate(0,447.5,285.5)"/><rect x="443" y="326" width="9" height="9" transform="rotate(0,447.5,330.5)"/><rect x="443" y="335" width="9" height="9" transform="rotate(0,447.5,339.5)"/><rect x="443" y="353" width="9" height="9" transform="rotate(0,447.5,357.5)"/><rect x="443" y="362" width="9" height="9" transform="rotate(0,447.5,366.5)"/><rect x="443" y="371" width="9" height="9" transform="rotate(0,447.5,375.5)"/><rect x="443" y="416" width="9" height="9" transform="rotate(0,447.5,420.5)"/><rect x="443" y="452" width="9" height="9" transform="rotate(0,447.5,456.5)"/><rect x="443" y="461" width="9" height="9" transform="rotate(0,447.5,465.5)"/><rect x="452" y="101" width="9" height="9" transform="rotate(0,456.5,105.5)"/><rect x="452" y="110" width="9" height="9" transform="rotate(0,456.5,114.5)"/><rect x="452" y="146" width="9" height="9" transform="rotate(0,456.5,150.5)"/><rect x="452" y="164" width="9" height="9" transform="rotate(0,456.5,168.5)"/><rect x="452" y="227" width="9" height="9" transform="rotate(0,456.5,231.5)"/><rect x="452" y="236" width="9" height="9" transform="rotate(0,456.5,240.5)"/><rect x="452" y="272" width="9" height="9" transform="rotate(0,456.5,276.5)"/><rect x="452" y="281" width="9" height="9" transform="rotate(0,456.5,285.5)"/><rect x="452" y="317" width="9" height="9" transform="rotate(0,456.5,321.5)"/><rect x="452" y="326" width="9" height="9" transform="rotate(0,456.5,330.5)"/><rect x="452" y="344" width="9" height="9" transform="rotate(0,456.5,348.5)"/><rect x="452" y="362" width="9" height="9" transform="rotate(0,456.5,366.5)"/><rect x="452" y="371" width="9" height="9" transform="rotate(0,456.5,375.5)"/><rect x="452" y="398" width="9" height="9" transform="rotate(0,456.5,402.5)"/><rect x="452" y="407" width="9" height="9" transform="rotate(0,456.5,411.5)"/><rect x="452" y="416" width="9" height="9" transform="rotate(0,456.5,420.5)"/><rect x="452" y="461" width="9" height="9" transform="rotate(0,456.5,465.5)"/><rect x="461" y="110" width="9" height="9" transform="rotate(0,465.5,114.5)"/><rect x="461" y="119" width="9" height="9" transform="rotate(0,465.5,123.5)"/><rect x="461" y="137" width="9" height="9" transform="rotate(0,465.5,141.5)"/><rect x="461" y="155" width="9" height="9" transform="rotate(0,465.5,159.5)"/><rect x="461" y="164" width="9" height="9" transform="rotate(0,465.5,168.5)"/><rect x="461" y="173" width="9" height="9" transform="rotate(0,465.5,177.5)"/><rect x="461" y="182" width="9" height="9" transform="rotate(0,465.5,186.5)"/><rect x="461" y="236" width="9" height="9" transform="rotate(0,465.5,240.5)"/><rect x="461" y="254" width="9" height="9" transform="rotate(0,465.5,258.5)"/><rect x="461" y="263" width="9" height="9" transform="rotate(0,465.5,267.5)"/><rect x="461" y="290" width="9" height="9" transform="rotate(0,465.5,294.5)"/><rect x="461" y="299" width="9" height="9" transform="rotate(0,465.5,303.5)"/><rect x="461" y="308" width="9" height="9" transform="rotate(0,465.5,312.5)"/><rect x="461" y="335" width="9" height="9" transform="rotate(0,465.5,339.5)"/><rect x="461" y="344" width="9" height="9" transform="rotate(0,465.5,348.5)"/><rect x="461" y="353" width="9" height="9" transform="rotate(0,465.5,357.5)"/><rect x="461" y="362" width="9" height="9" transform="rotate(0,465.5,366.5)"/><rect x="461" y="371" width="9" height="9" transform="rotate(0,465.5,375.5)"/><rect x="461" y="434" width="9" height="9" transform="rotate(0,465.5,438.5)"/><rect x="461" y="443" width="9" height="9" transform="rotate(0,465.5,447.5)"/><rect x="461" y="452" width="9" height="9" transform="rotate(0,465.5,456.5)"/><rect x="461" y="461" width="9" height="9" transform="rotate(0,465.5,465.5)"/></clipPath><clipPath id="clip-path-corners-square-color-0-0"><path clip-rule="evenodd" d="M 29 29v 63h 63v -63zM 38 38h 45v 45h -45z" transform="rotate(0,60.5,60.5)"/></clipPath><clipPath id="clip-path-corners-dot-color-0-0"><rect x="47" y="47" width="27" height="27" transform="rotate(0,60.5,60.5)"/></clipPath><clipPath id="clip-path-corners-square-color-1-0"><path clip-rule="evenodd" d="M 407 29v 63h 63v -63zM 416 38h 45v 45h -45z" transform="rotate(90,438.5,60.5)"/></clipPath><clipPath id="clip-path-corners-dot-color-1-0"><rect x="425" y="47" width="27" height="27" transform="rotate(90,438.5,60.5)"/></clipPath><clipPath id="clip-path-corners-square-color-0-1"><path clip-rule="evenodd" d="M 29 407v 63h 63v -63zM 38 416h 45v 45h -45z" transform="rotate(-90,60.5,438.5)"/></clipPath><clipPath id="clip-path-corners-dot-color-0-1"><rect x="47" y="425" width="27" height="27" transform="rotate(-90,60.5,438.5)"/></clipPath></defs><rect x="0" y="0" height="500" width="500" clip-path="url('#clip-path-background-color')" fill="#1f2937"/><rect x="0" y="0" height="500" width="500" clip-path="url('#clip-path-dot-color')" fill="#fff"/><rect x="29" y="29" height="63" width="63" clip-path="url('#clip-path-corners-square-color-0-0')" fill="#fff"/><rect x="47" y="47" height="27" width="27" clip-path="url('#clip-path-corners-dot-color-0-0')" fill="#fff"/><rect x="407" y="29" height="63" width="63" clip-path="url('#clip-path-corners-square-color-1-0')" fill="#fff"/><rect x="425" y="47" height="27" width="27" clip-path="url('#clip-path-corners-dot-color-1-0')" fill="#fff"/><rect x="29" y="407" height="63" width="63" clip-path="url('#clip-path-corners-square-color-0-1')" fill="#fff"/><rect x="47" y="425" height="27" width="27" clip-path="url('#clip-path-corners-dot-color-0-1')" fill="#fff"/></svg>